<?xml version="1.0" encoding="UTF-8"?>
<svg width="1448" height="1086" viewBox="148.9 27.6 1199.4 996.8" fill="none" xmlns="http://www.w3.org/2000/svg">
  <path d="M511 49 C508.64187316 49.23200111 506.2806194 49.43309074 503.91796875 49.61328125 C502.50938652 49.72499377 501.10085985 49.83740842 499.69238281 49.95043945 C498.9578186 50.00898102 498.22325439 50.06752258 497.46643066 50.12783813 C475.81822201 51.88199356 454.76252788 55.53563849 433.49902344 59.89379883 C426.88730099 61.24790464 420.29022591 62.48525872 413.61230469 63.46826172 C410.88721952 64.02295662 408.56872285 64.94663343 406 66 C404.1694288 66.49285899 402.3299606 66.95345821 400.484375 67.38671875 C393.99791104 68.96866218 387.62721695 70.8395992 381.25 72.8125 C380.11256348 73.1643335 378.97512695 73.51616699 377.80322266 73.87866211 C369.0656009 76.61095381 360.47860446 79.54845211 352 83 C351.3704541 83.25571777 350.7409082 83.51143555 350.09228516 83.77490234 C319.97862074 96.13290401 292.60793169 113.60388229 269 136 C268.49146484 136.47985352 267.98292969 136.95970703 267.45898438 137.45410156 C251.4183969 152.68960237 239.39882444 171.07647948 228.4375 190.1875 C227.93686035 191.06019531 227.4362207 191.93289062 226.92041016 192.83203125 C224.30746334 197.46134532 222.02742135 202.0779034 220 207 C219.43485134 208.21977506 218.86166873 209.43585419 218.28125 210.6484375 C214.06659053 219.45710021 214.06659053 219.45710021 210.78637695 228.64526367 C209.90856227 231.2738022 208.84070191 233.76991647 207.73828125 236.3125 C204.97790549 242.88289441 202.67956749 249.57223789 200.46020508 256.33813477 C199.80700739 258.32924284 199.14723315 260.31807898 198.48632812 262.30664062 C194.76228157 273.32257038 194.76228157 273.32257038 192.078125 284.62109375 C191.10816384 289.63224524 189.88777809 294.56019286 188.64013672 299.50854492 C178.85200385 338.58859158 173.25839481 378.78163975 171 419 C170.91540527 420.45696289 170.91540527 420.45696289 170.82910156 421.94335938 C168.90695653 457.36087207 169.26357875 493.14405558 170.875 528.5625 C170.91420563 529.45421906 170.95341125 530.34593811 170.99380493 531.26467896 C171.43001841 540.87628583 172.17261152 550.34069528 173.54931641 559.86450195 C173.90147524 562.31454304 174.20151372 564.74296273 174.421875 567.20703125 C176.41840292 589.14507019 180.97926463 610.94146188 185.6875 632.4375 C185.83166351 633.09727844 185.97582703 633.75705688 186.12435913 634.43682861 C187.69494593 641.58654994 189.38556589 648.68027955 191.36865234 655.72729492 C191.93472863 657.76503821 192.44017636 659.81939564 192.9375 661.875 C194.06929387 666.47700481 195.516579 670.97805279 196.9296875 675.5 C198.00855056 679.02796096 199.01021338 682.57112049 200 686.125 C203.20421566 697.38943257 207.6213005 708.1541156 212 719 C212.68813688 720.72891331 213.37572323 722.45804596 214.0625 724.1875 C214.70792114 725.79183255 215.35376386 727.39599556 216 729 C216.53173828 730.34384766 216.53173828 730.34384766 217.07421875 731.71484375 C220.29651 739.69028223 224.07603712 747.31410323 227.97802734 754.97070312 C228.94071324 756.88227627 229.87604023 758.80421429 230.80078125 760.734375 C240.15720555 780.15035152 251.46251727 798.49013313 264 816 C264.48065918 816.67353516 264.96131836 817.34707031 265.45654297 818.04101562 C275.25735319 831.72222948 285.67050155 844.83872717 296.72070312 857.52978516 C297.78171546 858.74913941 298.83692971 859.97353601 299.890625 861.19921875 C309.84838769 872.72798769 320.19389905 884.13595935 331.7734375 894.0546875 C334.01436666 896.01255193 336.19825431 898.02539267 338.37744141 900.05151367 C343.71259776 905.00511033 349.18468874 909.61926055 355 914 C356.32257813 915.04994141 356.32257813 915.04994141 357.671875 916.12109375 C378.38545127 932.46120768 400.82726447 946.45412447 424 959 C425.13332764 959.6180249 425.13332764 959.6180249 426.28955078 960.24853516 C437.11895967 966.19087911 437.11895967 966.19087911 448.46362305 971.04052734 C451.18433526 972.06973121 453.85382369 973.19117309 456.53125 974.328125 C481.64222276 984.82660595 507.00990322 992.01753214 533.79150391 996.61621094 C536.04388528 997.00762632 538.29358619 997.41203581 540.54296875 997.8203125 C541.28957764 997.95501953 542.03618652 998.08972656 542.80541992 998.22851562 C544.21351868 998.48291015 545.62126828 998.73924936 547.02856445 998.99804688 C577.0546592 1004.38229272 609.35697247 1003.02233456 639.6875 1001.125 C640.96149658 1001.04660889 642.23549316 1000.96821777 643.5480957 1000.88745117 C650.25001305 1000.42004229 656.79670508 999.63804248 663.41040039 998.45947266 C666.55474536 997.90157153 669.70369908 997.49764687 672.875 997.125 C674.22277469 996.96060357 675.57041887 996.79513539 676.91796875 996.62890625 C677.69060059 996.53367676 678.46323242 996.43844727 679.25927734 996.34033203 C684.57449481 995.68030948 689.88810919 995.00904109 695.19952393 994.31903076 C697.13291191 994.06954411 699.06718006 993.8269083 701.00146484 993.58447266 C710.19751683 992.38394053 719.32180718 990.89699849 728.14013672 987.95092773 C731.64556815 986.78534335 735.17667376 986.20565192 738.8125 985.625 C744.92094771 984.59530557 750.96786082 983.41112957 757 982 C757.66878174 981.84611816 758.33756348 981.69223633 759.02661133 981.53369141 C762.4512888 980.71597181 765.77886014 979.76427255 769.109375 978.62109375 C775.40446592 976.47283329 781.83233909 974.80103043 788.25 973.0625 C796.58079426 970.80352287 804.86843704 968.46627655 813.10888672 965.89575195 C815.50237903 965.15417762 817.89901707 964.44074279 820.30859375 963.75390625 C858.37022373 952.83818785 896.4790425 939.28241072 933 924 C934.54409543 923.3641572 936.08837086 922.72875139 937.6328125 922.09375 C948.25497797 917.69886188 958.72534566 912.99501136 969.171875 908.19921875 C971.94110523 906.92817544 974.71007159 905.70131284 977.51953125 904.51953125 C982.97271568 902.1387358 988.23523202 899.38473416 993.52929688 896.671875 C997.40578031 894.70849971 1001.22534394 892.84904919 1005.31640625 891.375 C1008.57049377 890.1603247 1011.05942641 888.79959132 1014 887 C1015.77110693 886.0340486 1017.54889786 885.08028495 1019.33203125 884.13671875 C1034.43535482 876.10130806 1049.29893191 867.75505189 1064 859 C1064.77682129 858.54093262 1065.55364258 858.08186523 1066.35400391 857.60888672 C1076.39273352 851.66686917 1086.15881323 845.3268421 1095.875 838.875 C1096.43982086 838.50113159 1097.00464172 838.12726318 1097.58657837 837.74206543 C1105.60373282 832.42622752 1113.35453384 826.83570276 1121 821 C1122.47742113 819.88743171 1123.95524094 818.7753925 1125.43359375 817.6640625 C1137.22956744 808.73376922 1148.53757002 799.43819114 1159.33691406 789.32202148 C1162.01035678 786.81839738 1164.71773059 784.38493876 1167.5078125 782.01171875 C1173.33302901 776.93816547 1178.73161842 771.41727887 1184.18188477 765.94848633 C1186.05829475 764.06671726 1187.93998969 762.19035262 1189.82226562 760.31445312 C1195.75918458 754.38117138 1201.61240181 748.44480876 1207 742 C1207.87706061 740.97869962 1208.75464021 739.95784464 1209.6328125 738.9375 C1212.43439581 735.6353203 1215.22340392 732.3232051 1218 729 C1218.51369141 728.38592285 1219.02738281 727.7718457 1219.55664062 727.13916016 C1232.53812492 711.56057867 1244.27937178 695.21042359 1255 678 C1255.47791992 677.23494141 1255.95583984 676.46988281 1256.44824219 675.68164062 C1285.43752299 629.01596909 1308.04151448 575.86776072 1317.31640625 521.4921875 C1317.92306682 518.39301863 1318.83523049 515.90958487 1320 513 C1320.81034839 508.52057417 1321.27062438 504.00200964 1321.74121094 499.47607422 C1321.91341964 497.82839434 1322.09373278 496.18154092 1322.28222656 494.53564453 C1328.29898179 441.00691877 1324.5936686 381.00467366 1303 331 C1302.32988758 329.36623035 1301.66063644 327.73210721 1300.9921875 326.09765625 C1294.28752562 310.04882628 1286.81884185 294.40527455 1277 280 C1276.2678125 278.92105469 1275.535625 277.84210938 1274.78125 276.73046875 C1259.5242137 254.40247511 1241.775553 233.41979217 1221 216 C1219.97984942 215.12832848 1218.9603775 214.25586236 1217.94140625 213.3828125 C1190.71031878 190.10398157 1160.38526559 170.35113699 1128 155 C1127.15195801 154.59458984 1126.30391602 154.18917969 1125.43017578 153.77148438 C1095.43628582 139.49623268 1064.59111691 128.90677151 1032.85546875 119.3671875 C1014.12727813 113.73643126 1014.12727813 113.73643126 1007.125 111.375 C1001.43142204 109.46676986 996.06082023 107.98900523 990.0703125 107.33984375 C987.91193017 106.98554325 986.05173748 106.37782383 984 105.625 C979.03725925 103.84949938 973.94001375 102.96643965 968.75976562 102.09033203 C965.71778618 101.56418004 962.86464052 100.95349719 959.94140625 99.94921875 C956.61478147 98.87568645 953.60907606 98.58831078 950.125 98.375 C948.39636719 98.26285156 948.39636719 98.26285156 946.6328125 98.1484375 C945.76398437 98.09945312 944.89515625 98.05046875 944 98 C944 97.34 944 96.68 944 96 C943.154375 95.87882812 942.30875 95.75765625 941.4375 95.6328125 C931.04794058 94.09799122 931.04794058 94.09799122 926.75 92.875 C922.39910987 91.8597923 918.4396603 91.81501415 914 92 C914 91.34 914 90.68 914 90 C886.96857461 84.86823835 886.96857461 84.86823835 859.796875 80.56176758 C849.56462004 79.10232005 839.35365113 77.51939103 829.14483643 75.90454102 C827.20151966 75.59764031 825.25796278 75.29225549 823.31414795 74.98852539 C805.94834552 72.27378805 805.94834552 72.27378805 797.65625 70.41796875 C790.25893005 68.76481094 782.82818987 67.80654312 775.3125 66.875 C772.66224636 66.54288483 770.01271431 66.20586691 767.36328125 65.8671875 C766.21126221 65.72394043 765.05924316 65.58069336 763.87231445 65.43310547 C761 65 761 65 758 64 C756.12792512 63.73967821 754.25052097 63.51686849 752.37109375 63.31640625 C750.69370117 63.13174805 750.69370117 63.13174805 748.98242188 62.94335938 C746.64658704 62.69240191 744.31065158 62.4423791 741.97460938 62.19335938 C736.88909705 61.63217934 731.87719098 61.03786389 726.87109375 59.96875 C721.48865142 58.82314229 716.10475323 58.36618818 710.625 57.9375 C708.70028479 57.78285821 706.77579191 57.62541738 704.8515625 57.46484375 C704.01447754 57.399021 703.17739258 57.33319824 702.31494141 57.26538086 C700.12753752 57.01462068 698.12860735 56.54628451 696 56 C693.10432861 55.67987552 690.21318242 55.39034603 687.3125 55.125 C680.79244706 54.50723581 674.29563208 53.8027666 667.80091858 52.95892334 C633.56796058 48.60013149 599.58966537 47.55320368 565.11157227 47.73571777 C560.72122018 47.75509136 556.33090851 47.75889525 551.94051933 47.7624321 C546.66605627 47.76756593 541.39163056 47.78204908 536.1171875 47.796875 C535.12660213 47.79875572 534.13601677 47.80063644 533.11541367 47.80257416 C530.33063341 47.80943844 527.54597251 47.82305572 524.76123047 47.83886719 C523.9428067 47.83998505 523.12438293 47.84110291 522.28115845 47.84225464 C518.3894531 47.87156105 514.78811829 48.10476482 511 49 Z" fill="#FBC101"/>
</svg>