<?xml version="1.0" encoding="UTF-8"?>
<svg id="Warstwa_1" data-name="Warstwa 1" xmlns="http://www.w3.org/2000/svg" version="1.1" viewBox="0 0 326 322">
  <defs>
    <style>
      .cls-1 {
        fill: #f18600;
      }

      .cls-1, .cls-2, .cls-3, .cls-4, .cls-5 {
        stroke-width: 0px;
      }

      .cls-2 {
        fill: #f0f0f0;
      }

      .cls-3 {
        fill: #fdc300;
      }

      .cls-4 {
        fill: #504941;
      }

      .cls-5 {
        fill: #fff;
      }
    </style>
  </defs>
  <path class="cls-3" d="M41.3,184.6c6.8,36.5,31.8,70.8,67.5,81.4,26.5,7.9,55.3,2.3,81.8-6.2,33.2-10.7,66.2-26.7,87.8-54,21.6-27.3,29-67.9,10-96.7-19.8-30.1-59.6-38.6-95.4-44.6-37.9-6.4-91.7-15.6-126.3,8.2-29.5,20.4-31.4,80.7-25.6,111.9"/>
  <path class="cls-2" d="M96.1,161.7c.7-3.7,3.6-6.4,7.4-8.8,3.4-2,7.5-4,12.8-4.3,2.3-.1,4.6-.1,6.7,0,0,0,0,0,0,0,0,1,.3,2,.8,2.8,0,0,0,.1,0,.2-.8.4-1.6.8-2.3,1.2-1.3.7-2.7,1.2-4,1.9-3.4,1.6-6.9,3-10.4,4.4-.2,0-.5.2-.8.3,0,.4,0,.8.1,1.1.7,6,.7,12.1.7,18.2-6.4-3.4-11-9.2-11.2-17"/>
  <path class="cls-1" d="M109.1,140c-.3,1.1-1.2,2-2.4,2.3-.2,0-.4,0-.6,0-1,0-1.9-.5-2.5-1.2-.2-.2-.1-.6.1-.7.2-.2.6-.1.7.1.4.6,1.3.9,2,.8.7-.1,1.4-.8,1.5-1.5.2-.7,0-1.6-.7-2-.2-.2-.3-.5,0-.7.2-.2.5-.3.7,0,.9.7,1.3,2,1,3.1M98.6,149.2c-.4,1.1-1.5,1.9-2.7,2.1-.2,0-.3,0-.5,0-1,0-2-.4-2.7-1.2-.2-.2-.2-.5,0-.7.2-.2.5-.2.7,0,.6.6,1.4.9,2.2.8.8-.1,1.5-.7,1.8-1.4.3-.8.2-1.7-.4-2.3-.2-.2-.2-.6,0-.7.2-.2.6-.2.7,0,.8.9,1,2.2.6,3.3M123.2,148.7c0-1.2.3-2.5,1-3.5,0,0-.2-.2-.4-.3-1.4-1.1-2.8-2.2-4.2-3.3-3.2-2.7-6.1-5.6-8.7-8.9-.6-.7-1.1-1.5-1.7-2.2-1.2-1.7-2.5-3.4-3.9-4.9-2.4-2.6-4.8-4.4-7.3-5.4,0,0-.1,0-.2,0,0,0,0,0,0,.1,0,3.9.1,8.4,1.1,12.9-2.1,1.2-4.3,3.2-6.7,5.9l-5.3,6c-5.5-1.4-10.9-1.7-15.5-1.1,0,0,0,0-.1,0,0,0,0,.1,0,.2,2.1,4.6,6.2,8.9,12.2,12.7-1.5,4.4-6.2,19.7-7.5,31.2-1.2-7.9-3.5-22.2-5.9-29.6-3.4-10.4-11-24.7-17-26.1-5-1.1-4.5,13.5-4.5,15.9-.2,8.1,1.6,16.3,5.2,23.5,4.5,9.1,12.1,17.6,21.8,21.3,0,3.5.4,6.3,1.7,7.7,2.3,2.6,6.8,3,10,3.2,2.5.2,5,.2,7.5.2-.2-.6-.2-1.2-.3-1.8-.2-2.3-.1-4.7,0-7,0-.4,0-.9,0-1.3,0-.2,0-.5,0-.7,0-.1,0-.4.2-.4.1,0,.1.2.2.2,0,0,.1,0,.2-.2.1-.1.2-.3.3-.4.2-.2.7-1.1,1-.9,0,0,0,0,.1.1.2.3.5.5.7.8.2.2.4.6.7.8.2-.2.4-.5.6-.7.2-.2.3-.4.5-.5,0,0,.3-.3.4-.3.1,0,.3.2.4.3.2.2.3.3.5.5.2.3.4.4.4.8,0,.4,0,.8,0,1.2,0,.6,0,1.2,0,1.7,0,1.1-.1,2.3-.2,3.4-.1,1.3-.4,2.5-.7,3.8,0,.2,0,.3-.1.5.8,0,1.7,0,2.5-.2-.1-.4-.2-.7-.3-1.1-.4-1.7-.6-3.4-.8-5.1,0-.7-.1-1.5-.2-2.2,0-.4,0-.7,0-1.1,0-.4,0-.7,0-1.1.1,0,.2.2.3.3,0,0,.4-.7.4-.7.2-.4.4-.8.8-1,0,0,.2,0,.2,0,.5.4,1.1.9,1.7,1.4.3-.5.7-1.1,1.2-1.7.2-.2.5.1.6.2.2.2.4.4.6.5.2.2.3.3.3.6,0,0,0,.2,0,.2.1-3.7.2-7.4.3-11.2,0-1.1,0-2.2,0-3.3-6.4-3.4-11-9.2-11.2-17,.7-3.7,3.6-6.4,7.4-8.8,3.4-2,7.5-4,12.8-4.3,2.3-.1,4.6-.1,6.7,0"/>
  <path class="cls-5" d="M58.4,163.8c.2.5.4,1.1.5,1.6.1.4-.5.6-.7.2-.2-.5-.4-1.1-.5-1.6-.1-.4.5-.6.7-.2"/>
  <path class="cls-5" d="M60.2,168c.1.4.3.8.5,1.1.2.4-.4.7-.6.3-.2-.4-.4-.8-.5-1.3-.1-.4.6-.6.7-.2"/>
  <path class="cls-5" d="M63.2,144.7c.7.9,1.2,1.9,1.6,3,.1.4-.5.6-.7.2-.4-1-.9-2-1.5-2.9-.3-.4.3-.7.6-.3"/>
  <path class="cls-5" d="M65.6,149.7c.4.8.6,1.6.8,2.4,0,.4-.6.6-.7.2-.2-.8-.4-1.5-.7-2.2-.2-.4.4-.7.6-.3"/>
  <path class="cls-5" d="M67.5,154.3c.3.9.6,1.9,1,2.8.1.4-.5.6-.7.2-.3-.9-.6-1.9-1-2.8-.1-.4.5-.6.7-.2"/>
  <path class="cls-5" d="M68.8,158.7c.3.8.6,1.7.9,2.5.2.4-.5.6-.7.2-.3-.8-.6-1.7-.9-2.5-.2-.4.5-.6.7-.2"/>
  <path class="cls-5" d="M70.1,163.1c.3.8.5,1.6.7,2.5,0,.4-.6.6-.7.2-.1-.8-.4-1.7-.7-2.5-.2-.4.5-.6.7-.2"/>
  <path class="cls-5" d="M70.9,167.4c.3.8.6,1.6.8,2.5.1.4-.6.6-.7.2-.2-.8-.5-1.7-.8-2.5-.2-.4.5-.6.7-.2"/>
  <path class="cls-5" d="M72.2,172.4c.3.9.5,1.9.6,2.8,0,.4-.6.4-.7,0-.1-.9-.3-1.8-.6-2.6-.1-.4.5-.6.7-.2"/>
  <path class="cls-5" d="M73.2,176.9c.2.9.4,1.9.6,2.8,0,.4-.6.6-.7.2-.1-.9-.3-1.9-.6-2.8-.1-.4.6-.6.7-.2"/>
  <path class="cls-5" d="M74.5,181.7c.1.8.2,1.6.4,2.4,0,.4-.6.6-.7.2l-.4-2.4c0-.4.6-.6.7-.2"/>
  <path class="cls-5" d="M74.8,187.2c0-.4.6-.4.7,0,0,.6,0,1.2,0,1.8,0,.4-.7.4-.7,0,0-.6,0-1.2,0-1.8"/>
  <path class="cls-5" d="M75.7,190.9c.2,0,.4,0,.4.2,0,.3.1.5.2.8,0,.2,0,.4-.2.4-.2,0-.4,0-.4-.2,0-.3-.1-.5-.2-.8,0-.2,0-.4.2-.4"/>
  <path class="cls-5" d="M61.7,145.8c.3.8.7,1.7,1,2.5.2.4-.5.6-.7.2l-1-2.5c-.2-.4.5-.6.7-.2"/>
  <path class="cls-5" d="M63.3,150.3c.2.6.4,1.2.7,1.7.2.4-.4.7-.6.3-.3-.6-.6-1.2-.8-1.9-.1-.4.5-.6.7-.2"/>
  <path class="cls-5" d="M64.6,153.8c.2.7.4,1.3.7,2,.2.4-.4.7-.6.3-.3-.7-.6-1.4-.8-2.1-.1-.4.6-.6.7-.2"/>
  <path class="cls-5" d="M66,157.9c.3.7.5,1.5.8,2.2.1.4-.5.6-.7.2-.3-.7-.5-1.5-.8-2.2-.1-.4.5-.6.7-.2"/>
  <path class="cls-5" d="M67.5,162.3c.3.9.6,1.7.9,2.6.2.4-.5.6-.7.2-.3-.8-.6-1.7-.9-2.6-.1-.4.5-.6.7-.2"/>
  <path class="cls-5" d="M68.5,167.5c0,.7.2,1.4.5,2.1.2.4-.4.7-.6.3-.4-.8-.5-1.6-.6-2.4,0-.4.7-.4.7,0"/>
  <path class="cls-5" d="M69.7,171.9c.1,1,.3,2.1.6,3.1.1.4-.5.6-.7.2-.3-1.1-.5-2.1-.6-3.2,0-.4.6-.4.7,0"/>
  <path class="cls-5" d="M70.8,176.9c0,.8.3,1.7.5,2.5.1.4-.5.6-.7.2-.3-.9-.5-1.7-.6-2.7,0-.4.6-.4.7,0"/>
  <path class="cls-5" d="M72,181.3c.2.7.4,1.4.5,2.1.1.4-.6.6-.7.2-.2-.7-.4-1.4-.5-2.1-.1-.4.6-.6.7-.2"/>
  <path class="cls-5" d="M73.1,185.2c.2.7.3,1.4.5,2.1.1.4-.6.6-.7.2-.2-.7-.3-1.4-.5-2.1-.1-.4.6-.6.7-.2"/>
  <path class="cls-5" d="M74.4,189.5c.2.4.4.9.5,1.4,0,.4-.6.6-.7.2,0-.4-.2-.8-.4-1.2-.2-.4.4-.7.6-.3"/>
  <path class="cls-5" d="M72,188c.2.7.5,1.4.7,2.2.1.4-.5.6-.7.2-.2-.7-.5-1.4-.7-2.2-.1-.4.5-.6.7-.2"/>
  <path class="cls-5" d="M70.3,184c.2.8.5,1.5.8,2.2.2.4-.4.7-.6.3-.3-.8-.6-1.6-.8-2.4-.1-.4.5-.6.7-.2"/>
  <path class="cls-5" d="M68.9,179.9c0-.4.7-.4.7,0,0,.7,0,1.5.4,2.1.2.4-.4.8-.6.3-.3-.8-.5-1.6-.5-2.5"/>
  <path class="cls-5" d="M68.4,176.4c0,.8.3,1.5.6,2.2.2.4-.5.6-.7.2-.3-.8-.5-1.6-.6-2.4,0-.4.6-.4.7,0"/>
  <path class="cls-5" d="M67.2,172.7c.2.8.4,1.5.6,2.3.1.4-.5.6-.7.2-.2-.8-.4-1.5-.6-2.3-.1-.4.5-.6.7-.2"/>
  <path class="cls-5" d="M66.1,168.2c.1.8.3,1.6.6,2.4.2.4-.5.6-.7.2-.3-.8-.5-1.7-.6-2.6,0-.4.6-.4.7,0"/>
  <path class="cls-5" d="M65.4,164.7c.1.6.3,1.3.4,1.9,0,.4-.6.6-.7.2-.1-.6-.3-1.3-.4-1.9,0-.4.6-.6.7-.2"/>
  <path class="cls-5" d="M64.4,160.6c.1.8.3,1.6.5,2.3.1.4-.5.6-.7.2-.2-.8-.4-1.5-.5-2.3,0-.4.6-.6.7-.2"/>
  <path class="cls-5" d="M63.1,156.7c0,.8.2,1.6.5,2.4.2.4-.5.6-.7.2-.3-.8-.5-1.7-.5-2.6,0-.4.7-.4.7,0"/>
  <path class="cls-5" d="M61.8,152.6c.2.7.4,1.5.8,2.1.2.4-.4.7-.6.3-.4-.7-.7-1.5-.8-2.3,0-.4.6-.6.7-.2"/>
  <path class="cls-5" d="M60,148.7l.8,2c.2.4-.5.6-.7.2-.3-.7-.5-1.3-.8-2-.2-.4.5-.6.7-.2"/>
  <path class="cls-5" d="M59.1,145.4c.1.5.3.9.4,1.4.1.4-.5.6-.7.2-.1-.5-.3-.9-.4-1.4-.1-.4.5-.6.7-.2"/>
  <path class="cls-5" d="M69.1,187.9c.5.4,1,.7,1.4,1.1.4.3,0,.9-.3.6-.5-.4-1-.7-1.4-1.1-.4-.3,0-.9.3-.6"/>
  <path class="cls-5" d="M66.8,186c.4.4.7.7,1.1,1.1.3.3-.2.8-.5.5-.4-.4-.7-.7-1.1-1.1-.3-.3.2-.8.5-.5"/>
  <path class="cls-5" d="M63.6,183.4c.5.5,1,.9,1.5,1.3.4.2,0,.8-.3.6-.6-.4-1.2-.9-1.7-1.4-.3-.3.2-.8.5-.5"/>
  <path class="cls-5" d="M60.6,179.4l1.7,1.9c.3.3-.2.8-.5.5-.6-.6-1.1-1.3-1.7-1.9-.3-.3.2-.8.5-.5"/>
  <path class="cls-5" d="M58.5,176.2c.4.5.7,1,1.1,1.5.3.4-.3.7-.6.3-.4-.5-.7-1-1.1-1.5-.3-.4.3-.7.6-.3"/>
  <path class="cls-5" d="M56,171.8c.4.8.8,1.5,1.4,2.2.3.4-.3.7-.6.3-.5-.7-1-1.4-1.4-2.2-.2-.4.4-.7.6-.3"/>
  <path class="cls-5" d="M53.6,167.5c.5.8.8,1.6,1.2,2.5.2.4-.5.6-.7.2-.3-.8-.7-1.6-1.1-2.3-.2-.4.4-.7.6-.3"/>
  <path class="cls-5" d="M52.1,162.7c.2.8.5,1.6.7,2.4.1.4-.5.6-.7.2-.2-.8-.5-1.6-.7-2.4-.1-.4.5-.6.7-.2"/>
  <path class="cls-5" d="M51.2,158.8c0,.7.1,1.3.4,2,.2.4-.4.7-.6.3-.4-.7-.5-1.5-.5-2.3,0-.4.7-.4.7,0"/>
  <path class="cls-5" d="M50.5,154.4c.2.8.3,1.6.5,2.4,0,.4-.6.6-.7.2-.2-.8-.3-1.6-.5-2.4,0-.4.6-.6.7-.2"/>
  <path class="cls-5" d="M50.3,150.8v1.9c0,.4-.7.4-.7,0v-1.9c0-.4.7-.4.7,0"/>
  <path class="cls-5" d="M50.3,147.7c0,.5,0,.9,0,1.4,0,.4-.6.6-.7.2,0-.5-.1-1-.1-1.5,0-.4.7-.4.7,0"/>
  <path class="cls-5" d="M67.2,184c.7.5,1.4,1.1,2,1.8.3.3-.2.8-.5.5-.6-.6-1.2-1.1-1.8-1.6-.3-.3,0-.9.3-.6"/>
  <path class="cls-5" d="M64.1,181c.5.6,1.1,1.1,1.7,1.6.3.3,0,.9-.3.6-.7-.5-1.3-1.1-1.9-1.7-.3-.3.2-.8.5-.5"/>
  <path class="cls-5" d="M61.4,177.7c.3.6.7,1.1,1.2,1.6.3.3-.2.8-.5.5-.5-.5-.9-1.1-1.3-1.8-.2-.4.4-.7.6-.3"/>
  <path class="cls-5" d="M59.2,173.5c.4.7.9,1.4,1.4,2,.3.3-.2.8-.5.5-.5-.7-1.1-1.4-1.5-2.2-.2-.4.4-.7.6-.3"/>
  <path class="cls-5" d="M57.3,170.1c.3.5.6,1,.8,1.6.2.4-.4.7-.6.3l-.8-1.6c-.2-.4.4-.7.6-.3"/>
  <path class="cls-5" d="M55.3,166.3c.3.6.6,1.2,1,1.7.3.4-.3.7-.6.3-.4-.6-.8-1.2-1-1.9-.2-.4.5-.6.7-.2"/>
  <path class="cls-5" d="M53.7,161.8c.1.7.3,1.3.6,2,.2.4-.5.6-.7.2-.2-.6-.4-1.3-.6-2,0-.4.6-.6.7-.2"/>
  <path class="cls-5" d="M52.7,156.9c0,.9.3,1.7.6,2.5.2.4-.5.6-.7.2-.3-.9-.5-1.7-.6-2.7,0-.4.6-.4.7,0"/>
  <path class="cls-5" d="M52.3,152.8c0,.7,0,1.5.1,2.2,0,.4-.7.4-.7,0,0-.7,0-1.5-.1-2.2,0-.4.7-.4.7,0"/>
  <path class="cls-5" d="M52.3,149.1c0,.6.1,1.1.2,1.7,0,.4-.6.4-.7,0,0-.6-.1-1.1-.2-1.7,0-.4.6-.4.7,0"/>
  <path class="cls-5" d="M52.4,146.7v.9c0,.4-.7.4-.7,0v-.9c0-.4.7-.4.7,0"/>
  <path class="cls-5" d="M67.7,180.5c.2.8.5,1.5.9,2.1.2.4-.4.7-.6.3-.4-.7-.7-1.5-1-2.3-.1-.4.5-.6.7-.2"/>
  <path class="cls-5" d="M66.2,176.7c.2.8.4,1.6.7,2.4.2.4-.5.6-.7.2-.3-.8-.5-1.6-.7-2.4,0-.4.6-.6.7-.2"/>
  <path class="cls-5" d="M64.9,173.3c.2.6.4,1.2.6,1.7.1.4-.5.6-.7.2-.2-.6-.4-1.2-.6-1.7-.2-.4.5-.6.7-.2"/>
  <path class="cls-5" d="M64,169c.2.6.3,1.1.4,1.7,0,.4-.7.4-.7,0,0-.5-.2-1-.3-1.5-.2-.4.5-.6.7-.2"/>
  <path class="cls-5" d="M63,164.7c.2.6.3,1.3.4,1.9,0,.4-.6.6-.7.2,0-.6-.2-1.3-.4-1.9-.1-.4.5-.6.7-.2"/>
  <path class="cls-5" d="M61.9,160.7c.3.7.5,1.4.6,2.1,0,.4-.6.4-.7,0,0-.6-.2-1.2-.5-1.8-.2-.4.4-.7.6-.3"/>
  <path class="cls-5" d="M60.9,157.3c0,.5.1,1,.2,1.5,0,.4-.6.4-.7,0,0-.5-.1-1-.2-1.5,0-.4.6-.4.7,0"/>
  <path class="cls-5" d="M60.1,153.7l.2,2c0,.4-.6.4-.7,0l-.2-2c0-.4.6-.4.7,0"/>
  <path class="cls-5" d="M58.9,150.9c.2.4.3.9.5,1.3.1.4-.5.6-.7.2-.2-.4-.3-.9-.5-1.3-.1-.4.5-.6.7-.2"/>
  <path class="cls-5" d="M57.9,147.8c0,.7.2,1.3.4,2,.1.4-.5.6-.7.2-.2-.7-.3-1.4-.4-2.1,0-.4.6-.4.7,0"/>
  <path class="cls-5" d="M57,145.4c.1.4.2.8.3,1.2.1.4-.6.6-.7.2-.1-.4-.2-.8-.3-1.2-.1-.4.5-.6.7-.2"/>
  <path class="cls-5" d="M53.5,146.4c0-.4.7-.2.7.2-.2.9-.2,1.7-.1,2.6,0,.4-.6.4-.7,0,0-.9,0-1.8.1-2.7"/>
  <path class="cls-5" d="M53.5,151.2c0-.4.7-.4.7,0,0,.7,0,1.3.1,2,0,.4-.6.6-.7.2-.1-.7-.2-1.4-.2-2.2"/>
  <path class="cls-5" d="M54.5,155.1c0,.7.2,1.4.4,2.1.1.4-.5.6-.7.2-.2-.8-.3-1.5-.4-2.3,0-.4.6-.4.7,0"/>
  <path class="cls-5" d="M55.3,159.5c0,.7.3,1.3.5,2,.2.4-.5.6-.7.2-.3-.7-.4-1.4-.5-2.1,0-.4.6-.4.7,0"/>
  <path class="cls-5" d="M56.4,163.7c.2.8.5,1.5.9,2.2.2.4-.4.7-.6.3-.4-.8-.8-1.5-1-2.4-.1-.4.5-.6.7-.2"/>
  <path class="cls-5" d="M58.1,167.7c.3.9.6,1.7,1.1,2.5.2.4-.4.7-.6.3-.5-.8-.9-1.7-1.2-2.7-.1-.4.5-.6.7-.2"/>
  <path class="cls-5" d="M60.3,172.2c.2.5.4,1.1.8,1.5.2.4-.3.7-.6.3-.4-.5-.6-1.1-.8-1.7-.1-.4.5-.6.7-.2"/>
  <path class="cls-5" d="M62.6,176.3l1,1.4c.2.4-.3.7-.6.3l-1-1.4c-.2-.4.3-.7.6-.3"/>
  <path class="cls-5" d="M64.8,179.4c.2,0,.4,0,.5.1.2.3.4.6.7,1,.1.2,0,.4-.1.5-.2.1-.4,0-.5-.1l-.7-1c-.1-.2,0-.4.1-.5"/>
  <path class="cls-5" d="M63.3,173.9c.2.6.4,1.3.7,1.9.2.4-.4.7-.6.3-.3-.7-.6-1.4-.8-2.1-.1-.4.5-.6.7-.2"/>
  <path class="cls-5" d="M62.6,170.2c.1.6.3,1.1.4,1.6.1.4-.5.6-.7.2-.2-.5-.3-1.1-.4-1.6,0-.4.6-.6.7-.2"/>
  <path class="cls-5" d="M61.4,165.9c.1.6.3,1.3.4,1.9.1.4-.5.6-.7.2-.2-.6-.3-1.3-.4-1.9,0-.4.6-.6.7-.2"/>
  <path class="cls-5" d="M60,161.2l.6,2.7c0,.4-.6.6-.7.2-.2-.9-.4-1.8-.6-2.7,0-.4.6-.6.7-.2"/>
  <path class="cls-5" d="M59,157.8c0,.6.2,1.2.4,1.7.1.4-.5.6-.7.2-.2-.6-.3-1.1-.4-1.7,0-.4.6-.6.7-.2"/>
  <path class="cls-5" d="M58.1,154.1c0,.6.1,1.3.3,1.9.1.4-.5.6-.7.2-.2-.7-.4-1.4-.4-2.1,0-.4.7-.4.7,0"/>
  <path class="cls-5" d="M57.2,150.9c.1.5.2,1.1.4,1.6,0,.4-.6.6-.7.2l-.4-1.6c0-.4.6-.6.7-.2"/>
  <path class="cls-5" d="M56.1,147.3c.2.8.4,1.5.8,2.2.2.4-.4.8-.6.3-.3-.8-.6-1.6-.8-2.4-.1-.4.6-.6.7-.2"/>
  <path class="cls-5" d="M55.8,150.9c0,.5.2,1,.2,1.5,0,.4-.6.6-.7.2l-.2-1.5c0-.4.6-.6.7-.2"/>
  <path class="cls-5" d="M56,154.7c.2.7.4,1.4.6,2,.1.4-.5.6-.7.2-.2-.7-.4-1.4-.6-2-.1-.4.5-.6.7-.2"/>
  <path class="cls-5" d="M57.2,159c.2.7.4,1.4.6,2.1.1.4-.5.6-.7.2-.2-.7-.4-1.4-.6-2.1-.1-.4.5-.6.7-.2"/>
  <path class="cls-5" d="M91.3,196.5c0-.4.7-.4.7,0,0,.7,0,1.4-.1,2.1,0,.4-.7.4-.7,0,0-.7,0-1.4.1-2.1"/>
  <path class="cls-5" d="M90.9,201.1c0-.4.7-.4.7,0,0,.6,0,1.1-.1,1.7,0,.4-.7.4-.7,0,0-.6,0-1.1.1-1.7"/>
  <path class="cls-5" d="M83.5,160.2c.4-.7.6-1.5.8-2.3,0-.4.7-.2.7.2-.1.9-.4,1.7-.8,2.5-.2.4-.8,0-.6-.3"/>
  <path class="cls-5" d="M82.3,165.3c.2-.7.4-1.4.6-2.2.1-.4.8-.2.7.2-.2.7-.4,1.4-.6,2.2-.1.4-.8.2-.7-.2"/>
  <path class="cls-5" d="M80.9,170.7c.3-.9.5-1.8.8-2.8.1-.4.8-.2.7.2l-.8,2.8c-.1.4-.8.2-.7-.2"/>
  <path class="cls-5" d="M80.3,173c.1-.4.8-.2.7.2-.3,1-.5,1.9-.7,2.9,0,.4-.7.2-.7-.2.2-1,.4-2,.7-2.9"/>
  <path class="cls-5" d="M78.2,181.2c.3-.8.5-1.6.7-2.4,0-.4.7-.4.7,0-.1,1-.4,1.9-.8,2.8-.2.4-.8,0-.6-.3"/>
  <path class="cls-5" d="M77.9,184c.1-.4.8-.2.7.2-.3.9-.4,1.7-.4,2.7,0,.4-.7.4-.7,0,0-1,.1-1.9.4-2.8"/>
  <path class="cls-5" d="M77.1,189.8c0-.4.7-.4.7,0-.1.9-.2,1.8-.1,2.7,0,.4-.7.4-.7,0,0-.9,0-1.8.1-2.7"/>
  <path class="cls-5" d="M77.6,194.9c0,.7.1,1.3.2,2,0,.4-.6.4-.7,0,0-.7-.1-1.3-.2-2,0-.4.6-.4.7,0"/>
  <path class="cls-5" d="M78.1,198.9c.2.6.5,1.3.7,1.9.2.4-.5.6-.7.2l-.7-1.9c-.2-.4.5-.6.7-.2"/>
  <path class="cls-5" d="M85.5,162.1c.2-1,.5-2,.8-2.9.1-.4.8-.2.7.2-.3,1-.6,1.9-.8,2.9,0,.4-.8.2-.7-.2"/>
  <path class="cls-5" d="M84.9,164.3c.1-.4.8-.2.7.2-.2.7-.4,1.4-.5,2.2,0,.4-.7.2-.7-.2.1-.7.3-1.5.5-2.2"/>
  <path class="cls-5" d="M82.8,171c.2-.8.4-1.7.7-2.5.1-.4.8-.2.7.2-.2.8-.4,1.7-.7,2.5-.1.4-.8.2-.7-.2"/>
  <path class="cls-5" d="M82.3,173.6c.1-.4.8-.2.7.2-.2.8-.4,1.6-.5,2.4,0,.4-.7.2-.7-.2.1-.8.3-1.6.5-2.4"/>
  <path class="cls-5" d="M80.3,181.4l.7-2.6c.1-.4.8-.2.7.2-.2.9-.5,1.7-.7,2.6-.1.4-.8.2-.7-.2"/>
  <path class="cls-5" d="M80.2,183.9c.1-.4.8-.2.7.2-.2.7-.4,1.3-.4,2,0,.4-.7.4-.7,0,0-.8.2-1.5.5-2.2"/>
  <path class="cls-5" d="M79.3,188.8c0-.4.7-.4.7,0,0,.9,0,1.8-.1,2.7,0,.4-.7.4-.7,0,0-.9,0-1.8.1-2.7"/>
  <path class="cls-5" d="M80,193.8v2.1c0,.4-.7.4-.7,0v-2.1c0-.4.7-.4.7,0"/>
  <path class="cls-5" d="M79.6,198.4c0-.4.7-.4.7,0,0,.7,0,1.5.1,2.2,0,.4-.6.6-.7.2-.2-.8-.2-1.6-.2-2.4"/>
  <path class="cls-5" d="M87.6,162.9c.2-.8.4-1.7.7-2.5.1-.4.8-.2.7.2-.3.8-.5,1.6-.7,2.5,0,.4-.8.2-.7-.2"/>
  <path class="cls-5" d="M86.3,167.1c.2-.7.4-1.3.6-2,.1-.4.8-.2.7.2-.2.7-.4,1.3-.6,2-.1.4-.8.2-.7-.2"/>
  <path class="cls-5" d="M84.6,172.9c.3-1,.5-1.9.8-2.9.1-.4.8-.2.7.2-.3,1-.5,1.9-.8,2.9-.1.4-.8.2-.7-.2"/>
  <path class="cls-5" d="M84.3,175.3c.1-.4.8-.2.7.2-.2.9-.4,1.9-.6,2.8,0,.4-.7.2-.7-.2.1-1,.3-1.9.6-2.8"/>
  <path class="cls-5" d="M83,180.7c0-.4.7-.2.7.2-.2,1-.4,2-.5,3,0,.4-.7.4-.7,0,.1-1.1.3-2.1.5-3.2"/>
  <path class="cls-5" d="M82.1,187.1c0-.4.7-.4.7,0,0,.8-.1,1.5-.2,2.3,0,.4-.7.4-.7,0,0-.8.1-1.5.2-2.3"/>
  <path class="cls-5" d="M81.8,192c0-.4.7-.4.7,0,0,1.1,0,2.2,0,3.3,0,.4-.7.4-.7,0,0-1.1,0-2.2,0-3.3"/>
  <path class="cls-5" d="M81.7,197.2c0-.4.7-.4.7,0,0,.9,0,1.7,0,2.6,0,.4-.7.4-.7,0,0-.9,0-1.7,0-2.6"/>
  <path class="cls-5" d="M81.8,201.8c0-.4.7-.4.7,0,0,.4,0,.8,0,1.2,0,.4-.6.6-.7.2,0-.5-.1-.9,0-1.4"/>
  <path class="cls-5" d="M89.7,163.6c.2-.7.4-1.4.6-2.1.1-.4.8-.2.7.2-.2.7-.4,1.4-.6,2.1-.1.4-.8.2-.7-.2"/>
  <path class="cls-5" d="M89.3,165.8c0-.4.7-.2.7.2-.2.9-.3,1.9-.5,2.8,0,.4-.7.2-.7-.2.2-.9.3-1.9.5-2.8"/>
  <path class="cls-5" d="M87.4,173.7c.3-1,.5-2,.8-3,.1-.4.8-.2.7.2l-.8,3c-.1.4-.8.2-.7-.2"/>
  <path class="cls-5" d="M86.6,176.9c0-.4.7-.2.7.2-.2.8-.3,1.5-.3,2.3,0,.4-.7.4-.7,0,0-.8.2-1.7.3-2.5"/>
  <path class="cls-5" d="M85.5,181.5c0-.4.7-.2.7.2-.2.9-.3,1.8-.4,2.7,0,.4-.7.4-.7,0,.1-1,.3-1.9.5-2.9"/>
  <path class="cls-5" d="M84.5,187.9c0-.4.7-.4.7,0,0,.9-.1,1.8-.1,2.7,0,.4-.7.4-.7,0,0-.9,0-1.8.1-2.7"/>
  <path class="cls-5" d="M84.5,193.4v2.3c0,.4-.7.4-.7,0v-2.3c0-.4.7-.4.7,0"/>
  <path class="cls-5" d="M84.6,198.1c0,.8,0,1.5,0,2.3,0,.4-.7.4-.7,0,0-.8,0-1.5,0-2.3,0-.4.7-.4.7,0"/>
  <path class="cls-5" d="M84.6,202.1v.9c0,.4-.7.4-.7,0v-.9c0-.4.7-.4.7,0"/>
  <path class="cls-5" d="M92.2,162.4c0-.4.7-.2.7.2-.1.7-.2,1.4-.3,2.1,0,.4-.7.2-.7-.2.1-.7.2-1.4.3-2.1"/>
  <path class="cls-5" d="M91,169c.2-.6.3-1.3.4-2,0-.4.7-.4.7,0,0,.7-.2,1.4-.4,2.2-.1.4-.8.2-.7-.2"/>
  <path class="cls-5" d="M90.2,173.8c.2-.7.3-1.4.3-2.1,0-.4.7-.4.7,0,0,.8-.2,1.6-.4,2.3-.1.4-.8.2-.7-.2"/>
  <path class="cls-5" d="M88.9,178.6c.2-.9.4-1.8.6-2.6.1-.4.8-.2.7.2-.2.9-.4,1.8-.6,2.6,0,.4-.8.2-.7-.2"/>
  <path class="cls-5" d="M87.8,184.2c.2-.9.4-1.8.5-2.7,0-.4.7-.4.7,0-.1,1-.3,2-.5,2.9-.1.4-.8.2-.7-.2"/>
  <path class="cls-5" d="M87.4,186.7c.1-.4.8-.2.7.2-.4,1.2-.6,2.4-.8,3.6,0,.4-.7.4-.7,0,.2-1.3.4-2.5.8-3.8"/>
  <path class="cls-5" d="M86.3,192.8c0-.4.7-.4.7,0l-.2,2.5c0,.4-.7.4-.7,0l.2-2.5Z"/>
  <path class="cls-5" d="M86.7,197.8v2.4c0,.4-.7.4-.7,0v-2.4c0-.4.7-.4.7,0"/>
  <path class="cls-5" d="M86.7,201.9c0,.5,0,.9.1,1.4,0,.4-.7.4-.7,0,0-.5,0-.9-.1-1.4,0-.4.7-.4.7,0"/>
  <path class="cls-5" d="M93.9,163.3c0-.4.7-.4.7,0,0,1-.1,1.9-.3,2.9,0,.4-.7.2-.7-.2.2-.9.2-1.8.3-2.7"/>
  <path class="cls-5" d="M93.1,171.3c.2-.8.3-1.6.3-2.4,0-.4.7-.4.7,0,0,.9-.2,1.7-.4,2.6-.1.4-.8.2-.7-.2"/>
  <path class="cls-5" d="M92,176.8c.2-.8.4-1.7.6-2.5,0-.4.8-.2.7.2-.2.8-.4,1.7-.6,2.5,0,.4-.8.2-.7-.2"/>
  <path class="cls-5" d="M90.9,182.3c.3-.8.4-1.7.6-2.6,0-.4.7-.2.7.2-.1.9-.3,1.7-.6,2.6-.1.4-.8.2-.7-.2"/>
  <path class="cls-5" d="M89.8,187.2c.2-.9.4-1.8.5-2.6,0-.4.7-.4.7,0-.1,1-.3,1.9-.5,2.8-.1.4-.8.2-.7-.2"/>
  <path class="cls-5" d="M89.3,189.5c0-.4.7-.2.7.2-.2,1.1-.4,2.2-.5,3.3,0,.4-.7.2-.7-.2.2-1.1.3-2.2.5-3.3"/>
  <path class="cls-5" d="M88.7,195.9c0-.4.7-.2.7.2-.1.9-.2,1.9-.2,2.8,0,.4-.7.4-.7,0,0-1,0-2,.2-3"/>
  <path class="cls-5" d="M88.5,201.8c0-.4.6-.4.7,0,0,.4,0,.9,0,1.3,0,.4-.7.2-.7-.2,0-.4,0-.7,0-1.1"/>
  <path class="cls-5" d="M95.6,169.4c.3-.9.4-1.8.4-2.7,0-.4.7-.4.7,0,0,1-.2,2-.5,2.9-.1.4-.8.2-.7-.2"/>
  <path class="cls-5" d="M94.6,174.8c.2-.8.4-1.6.5-2.5,0-.4.7-.2.7.2-.1.8-.3,1.7-.5,2.5-.1.4-.8.2-.7-.2"/>
  <path class="cls-5" d="M94,179c.2-.6.3-1.2.4-1.9,0-.4.7-.4.7,0,0,.7-.2,1.4-.4,2.1-.1.4-.8.2-.7-.2"/>
  <path class="cls-5" d="M93.1,184.1c.2-.6.2-1.2.2-1.9,0-.4.7-.4.7,0,0,.7,0,1.4-.2,2.1-.1.4-.8.2-.7-.2"/>
  <path class="cls-5" d="M92.4,186.7c0-.4.7-.2.7.2l-.3,1.9c0,.4-.7.2-.7-.2l.3-1.9Z"/>
  <path class="cls-5" d="M91.7,191.9c0-.4.7-.4.7,0,0,.7,0,1.4-.1,2.1,0,.4-.7.2-.7-.2,0-.6.1-1.2,0-1.9"/>
  <path class="cls-4" d="M126.8,147c.4.3.9.6,1.4.9.3.2.7.4,1,.7,0,0,.1.1.1.2.1.5-.9,1-1.2,1.1-.8.3-1.5.6-2.3.9-.6.3-1.1.6-1.7.8-.6-.8-.9-1.9-.9-3,0-1.2.3-2.5,1-3.5,0,0,0,0,.1.1.8.6,1.6,1.2,2.5,1.7"/>
  <path class="cls-4" d="M103,205.3c-.6-.7-.8-1.7-1-2.6-.4-1.7-.6-3.4-.8-5.1,0-.7-.1-1.5-.2-2.2,0-.4,0-.7,0-1.1,0-.4,0-.7,0-1.1.1,0,.2.2.3.3,0,0,.4-.7.4-.7.2-.4.4-.8.8-1,0,0,.2,0,.2,0,.5.4,1.1.9,1.7,1.4.3-.5.7-1.1,1.2-1.7.2-.2.5.1.6.2.2.2.4.4.6.5.2.2.3.3.3.6,0,.2,0,.5,0,.7,0,.4.1.9.2,1.3.1.9.2,1.7.3,2.6.1,1.7.1,3.5,0,5.3,0,0,0,.2,0,.2,0,.7-.2,1.4-.5,2-.3.6-.9,1.2-1.5,1.3-.9.2-1.9-.3-2.4-1"/>
  <path class="cls-4" d="M95.2,205.3c-.5-.8-.6-1.8-.7-2.7-.2-2.3-.1-4.7,0-7,0-.4,0-.9,0-1.3,0-.2,0-.5,0-.7,0-.1,0-.4.2-.4.1,0,.1.2.2.2,0,0,.1,0,.2-.2.1-.1.2-.3.3-.4.2-.2.7-1.1,1-.9,0,0,0,0,.1.1.2.3.5.5.7.8.2.2.4.6.7.8.2-.2.4-.5.6-.7.2-.2.3-.4.5-.5,0,0,.3-.3.4-.3.1,0,.3.2.4.3.2.2.3.3.5.5.2.3.4.4.4.8,0,.4,0,.8,0,1.2,0,.6,0,1.2,0,1.7,0,1.1-.1,2.3-.2,3.4-.1,1.3-.4,2.5-.7,3.8-.2.7-.4,1.4-.8,1.9-.4.6-1,1-1.7,1.1-.9,0-1.8-.5-2.3-1.3"/>
  <path class="cls-4" d="M95.4,151.3c.2,0,.3,0,.5,0,1.2-.2,2.2-1,2.7-2.1.4-1.1.2-2.5-.6-3.3-.2-.2-.5-.2-.7,0-.2.2-.2.5,0,.7.5.6.7,1.5.4,2.3-.3.7-1,1.3-1.8,1.4-.8.1-1.7-.2-2.2-.8-.2-.2-.5-.2-.7,0-.2.2-.2.5,0,.7.7.7,1.7,1.2,2.7,1.2"/>
  <path class="cls-4" d="M106.2,142.3c.2,0,.4,0,.6,0,1.1-.2,2.1-1.1,2.4-2.3.3-1.1-.1-2.4-1-3.1-.2-.2-.6-.2-.7,0-.2.2-.2.6,0,.7.6.5.9,1.3.7,2-.2.7-.8,1.3-1.5,1.5-.7.1-1.6-.2-2-.8-.2-.2-.5-.3-.7-.1-.2.2-.3.5-.1.7.6.8,1.5,1.2,2.5,1.2"/>
  <path class="cls-4" d="M63.3,143s-1.9-3.1-2.8-4.4c-.7-1-1.5-2-2.4-2.9-1.7-1.8-3.3-3.1-4.9-3.4-3.8-.9-4.4,7.4-4.5,12.5,0,.2,0,.3,0,.5v.4s-.2,1.2.2,1.2.5,0,.7-.1c0,0,0,0,0,0,.2,0,.4-.2.6-.2,0,0,.2,0,.3,0,.4,0,.6,0,.7-.1,0,0,0,0,.1,0,0,0,.2,0,.4-.1.2-.1.4-.1.5-.2,0,0,0,0,0,0,.2,0,.4,0,.7-.2.5-.3,1.4-.6,1.7-.7.4,0,1.2-.1,1.6-.5.4-.3.7-.6,1-.5.3.1,1.3,0,1.5-.3.2-.2.9-.3,1.2-.3s.5,0,.5,0c.2,0,.3,0,.5,0,0,0,.2,0,.2,0,.1,0,.3,0,.4,0,.1,0,.3,0,.3,0,.2,0,1,0,1.2,0s.2-.2.2-.2"/>
  <path class="cls-4" d="M106.3,126.6s0,0,0,0c-.3-.4-.6-.7-.9-1.1-2.4-2.6-4.8-4.4-7.3-5.4,0,0-.1,0-.2,0s0,0,0,.1c0,2.7,0,5.8.4,8.9,0,.2,0,.7.1.7s.5-.2.6-.2c.1,0,.7-.2,1.1-.3.3-.1.9-.3,1.3-.4.4,0,.5-.3.8-.4.3-.1,1.1-.2,1.2-.5.2-.3.8-.7,1-.8.2,0,.9-.4,1.2-.4s.4-.1.5-.2c0,0,0,0,0,0,0,0,0,0,0,0h0"/>
  <path class="cls-4" d="M81.6,144.1s0,0,0,0c-3.6-.5-7.1-.5-10.1,0,0,0,0,0-.1,0,0,0,0,.1,0,.2.7,1.6,1.7,3.1,2.9,4.6,0,0,1.4,1.9,1.8,2.1.5.2.8-.1,1-.5.2-.4.4-1,.6-1.3.2-.3.6-1,.8-1.1.2,0,.3,0,.4-.1,0,0,0,0,0,0,0,0,.1-.1.2-.2.3-.4.5-.9.7-1,.2,0,.6-.3,1-.6.3-.3.9-.7,1.1-1,.2-.3.4-1-.5-1"/>
</svg>