<?xml version="1.0" encoding="UTF-8"?>
<svg id="Warstwa_1" data-name="Warstwa 1" xmlns="http://www.w3.org/2000/svg" xmlns:xlink="http://www.w3.org/1999/xlink" version="1.1" viewBox="0 0 326 322">
  <defs>
    <style>
      .cls-1 {
        clip-path: url(#clippath);
      }

      .cls-2 {
        fill: none;
      }

      .cls-2, .cls-3 {
        stroke-width: 0px;
      }

      .cls-3 {
        fill: #84c9bd;
      }
    </style>
    <clipPath id="clippath">
      <rect class="cls-2" x="35.8" y="50.7" width="254.5" height="229.7"/>
    </clipPath>
  </defs>
  <g class="cls-1">
    <path class="cls-3" d="M179.8,261.8c22.3,12.9,49.7,26,72.4,13.7,19.5-10.5,25.7-35,30-56.8,6.5-32.6,12.8-66.9,2.8-98.7-9.3-29.3-32.9-53.6-61.9-63.7-49.8-17.4-105.3,7.5-144.3,43.1-17.1,15.5-32.6,33.8-39.5,55.8-6.9,22-3.6,48.4,12.8,64.5,20.7,20.3,34.4,4.2,55.5,5.8,24.3,1.9,50.7,23.6,72.3,36.1"/>
  </g>
</svg>