<?xml version="1.0" encoding="UTF-8"?>
<svg id="Warstwa_1" data-name="Warstwa 1" xmlns="http://www.w3.org/2000/svg" xmlns:xlink="http://www.w3.org/1999/xlink" version="1.1" viewBox="0 0 326 322">
  <defs>
    <style>
      .cls-1 {
        clip-path: url(#clippath);
      }

      .cls-2 {
        fill: none;
      }

      .cls-2, .cls-3, .cls-4, .cls-5, .cls-6, .cls-7, .cls-8, .cls-9 {
        stroke-width: 0px;
      }

      .cls-3 {
        fill: #66bd3d;
      }

      .cls-4 {
        fill: #f18600;
      }

      .cls-5 {
        fill: #aaddf9;
      }

      .cls-6 {
        fill: #fdc300;
      }

      .cls-7 {
        fill: #504941;
      }

      .cls-8 {
        fill: #137269;
      }

      .cls-9 {
        fill: #fff;
      }
    </style>
    <clipPath id="clippath">
      <rect class="cls-2" x="44.2" y="50.8" width="237.7" height="203.2"/>
    </clipPath>
  </defs>
  <g class="cls-1">
    <path class="cls-3" d="M280.4,163.6c5.6-33.6-5-71.2-32.1-91.7-20.2-15.3-46.5-19.6-71.8-20.8-31.7-1.4-64.9,1.9-91.9,18.6-27,16.6-46,49.3-38.9,80.2,7.4,32.3,38.8,52.3,67.4,68.9,30.4,17.6,73.4,42.8,110.4,33.2,31.6-8.2,52.1-59.5,56.9-88.3"/>
    <path class="cls-6" d="M166.3,180.1c7.4,0,13.5-6.1,13.6-13.5,0-7.5-6-13.7-13.5-13.7-7.6,0-13.7,6-13.7,13.6,0,7.5,6.1,13.5,13.6,13.6M165.8,215.8c-4.6-4.4-8.7-9.1-12.7-14-4.6-5.8-8.7-11.8-12-18.4-2-4.2-3.7-8.5-4.3-13.2-.9-6.9.5-13.3,4.1-19.1,4.8-7.7,11.8-12.4,20.7-13.8,11.9-2,24,3.8,30.1,14.2,4.8,8.2,5.3,16.7,2.2,25.6-2.3,6.6-5.8,12.6-9.7,18.3-5,7.1-10.6,13.6-16.7,19.7-.3.2-.5.5-.8.7h-.9Z"/>
    <path class="cls-9" d="M203.3,187c-.4-2.4-2.3-4.2-4.8-5.7-2.2-1.3-4.8-2.6-8.3-2.8-1.5,0-3,0-4.3,0,0,0,0,0,0,0,0,.7-.2,1.3-.5,1.8,0,0,0,0,0,.1.5.3,1,.5,1.5.8.8.4,1.7.8,2.6,1.2,2.2,1,4.4,1.9,6.7,2.8.2,0,.3.1.5.2,0,.2,0,.5,0,.7-.4,3.9-.4,7.8-.4,11.7,4.1-2.2,7.1-5.9,7.2-10.9"/>
    <path class="cls-4" d="M194.9,173.1c.2.7.8,1.3,1.5,1.5.1,0,.2,0,.4,0,.6,0,1.2-.3,1.6-.8.1-.1,0-.4,0-.5-.1-.1-.4,0-.5,0-.3.4-.8.6-1.3.5-.5,0-.9-.5-1-1-.1-.5,0-1,.4-1.3.1-.1.2-.3,0-.5-.1-.1-.3-.2-.5,0-.6.5-.8,1.3-.7,2M201.7,179c.3.7,1,1.2,1.7,1.3.1,0,.2,0,.3,0,.6,0,1.3-.3,1.7-.8.1-.1.1-.4,0-.5-.1-.1-.4-.1-.5,0-.4.4-.9.6-1.4.5-.5,0-1-.5-1.2-.9-.2-.5,0-1.1.2-1.5.1-.1.1-.4,0-.5-.1-.1-.4-.1-.5,0-.5.6-.6,1.4-.4,2.2M185.9,178.7c0-.8-.2-1.6-.6-2.3,0,0,.2-.1.2-.2.9-.7,1.8-1.4,2.7-2.1,2-1.7,3.9-3.6,5.6-5.8.4-.5.7-1,1.1-1.4.8-1.1,1.6-2.2,2.5-3.2,1.5-1.7,3.1-2.8,4.7-3.5,0,0,0,0,.1,0,0,0,0,0,0,0,0,2.5,0,5.5-.7,8.3,1.3.8,2.7,2,4.3,3.8l3.4,3.9c3.6-.9,7-1.1,10-.7,0,0,0,0,0,0,0,0,0,0,0,0-1.4,3-4,5.8-7.9,8.2.9,2.8,4,12.7,4.8,20.1.7-5.1,2.2-14.3,3.8-19.1,2.2-6.7,7.1-15.9,10.9-16.8,3.2-.7,2.9,8.7,2.9,10.3.2,5.2-1,10.5-3.4,15.2-2.9,5.8-7.8,11.4-14.1,13.7,0,2.3-.3,4.1-1.1,5-1.5,1.7-4.4,1.9-6.4,2.1-1.6.1-3.2.2-4.8.1.1-.4.2-.8.2-1.1.1-1.5,0-3,0-4.5,0-.3,0-.6,0-.9,0-.1,0-.3,0-.4,0,0,0-.2,0-.3,0,0,0,.1-.1.1,0,0,0,0-.1-.1,0,0-.1-.2-.2-.3-.1-.1-.5-.7-.7-.6,0,0,0,0,0,0-.2.2-.3.3-.5.5-.1.2-.3.4-.5.5-.1-.1-.2-.3-.4-.4-.1-.1-.2-.2-.3-.3,0,0-.2-.2-.3-.2,0,0-.2.1-.2.2-.1.1-.2.2-.3.3-.1.2-.2.3-.2.5,0,.3,0,.5,0,.8,0,.4,0,.7,0,1.1,0,.7,0,1.5.2,2.2,0,.8.2,1.6.4,2.4,0,.1,0,.2,0,.3-.5,0-1.1,0-1.6-.1,0-.2.1-.5.2-.7.2-1.1.4-2.2.5-3.3,0-.5,0-.9,0-1.4,0-.2,0-.5,0-.7,0-.2,0-.5,0-.7,0,0-.2.1-.2.2,0,0-.2-.4-.3-.5-.1-.2-.3-.5-.5-.7,0,0,0,0-.1,0-.3.3-.7.6-1.1.9-.2-.3-.5-.7-.8-1.1,0-.1-.3,0-.4.1-.1.1-.3.2-.4.3-.1.1-.2.2-.2.4,0,0,0,.1,0,.2,0-2.4-.2-4.8-.2-7.2,0-.7,0-1.4,0-2.2,4.1-2.2,7.1-5.9,7.2-10.9-.4-2.4-2.3-4.2-4.8-5.7-2.2-1.3-4.8-2.6-8.3-2.8-1.5,0-3,0-4.3,0"/>
    <path class="cls-9" d="M227.7,188.4c-.1.3-.2.7-.3,1,0,.3.3.4.4.1.1-.3.2-.7.4-1,0-.3-.3-.4-.4-.1"/>
    <path class="cls-9" d="M226.5,191.1c0,.3-.2.5-.3.7-.1.2.2.5.4.2.2-.3.3-.5.3-.8,0-.3-.4-.4-.4-.1"/>
    <path class="cls-9" d="M224.6,176.1c-.4.6-.8,1.3-1,2,0,.3.3.4.4.1.2-.7.6-1.3,1-1.9.2-.2-.2-.4-.4-.2"/>
    <path class="cls-9" d="M223,179.3c-.2.5-.4,1-.5,1.5,0,.3.4.4.4.1.1-.5.3-1,.5-1.4.1-.3-.3-.5-.4-.2"/>
    <path class="cls-9" d="M221.8,182.3c-.2.6-.4,1.2-.6,1.8,0,.3.3.4.4.1.2-.6.4-1.2.6-1.8,0-.3-.3-.4-.4-.1"/>
    <path class="cls-9" d="M220.9,185.1c-.2.5-.4,1.1-.6,1.6,0,.3.3.4.4.1.2-.5.4-1.1.6-1.6,0-.3-.3-.4-.4-.1"/>
    <path class="cls-9" d="M220.1,187.9c-.2.5-.3,1-.4,1.6,0,.3.4.4.4.1,0-.5.2-1.1.4-1.6,0-.3-.3-.4-.4-.1"/>
    <path class="cls-9" d="M219.6,190.8c-.2.5-.4,1.1-.5,1.6,0,.3.4.4.4.1.1-.5.3-1.1.5-1.6.1-.3-.3-.4-.4-.1"/>
    <path class="cls-9" d="M218.8,194c-.2.6-.3,1.2-.4,1.8,0,.3.4.3.4,0,0-.6.2-1.2.4-1.7,0-.3-.3-.4-.4-.1"/>
    <path class="cls-9" d="M218.1,196.8c-.1.6-.3,1.2-.4,1.8,0,.3.4.4.4.1,0-.6.2-1.2.4-1.8,0-.3-.4-.4-.4-.1"/>
    <path class="cls-9" d="M217.3,200c0,.5-.2,1-.2,1.5,0,.3.4.4.4.1l.2-1.5c0-.3-.4-.4-.4-.1"/>
    <path class="cls-9" d="M217.1,203.5c0-.3-.4-.3-.4,0,0,.4,0,.8,0,1.2,0,.3.5.3.4,0,0-.4,0-.8,0-1.2"/>
    <path class="cls-9" d="M216.5,205.9c-.1,0-.2,0-.3.2,0,.2,0,.3-.1.5,0,.1,0,.2.2.3.1,0,.2,0,.3-.2,0-.2,0-.3.1-.5,0-.1,0-.2-.2-.3"/>
    <path class="cls-9" d="M225.5,176.8c-.2.5-.4,1.1-.7,1.6-.1.3.3.4.4.1.2-.5.4-1.1.7-1.6.1-.3-.3-.4-.4-.1"/>
    <path class="cls-9" d="M224.5,179.7c-.1.4-.3.8-.5,1.1-.1.2.2.5.4.2.2-.4.4-.8.5-1.2,0-.3-.3-.4-.4-.1"/>
    <path class="cls-9" d="M223.7,182c-.1.4-.3.9-.5,1.3-.1.3.3.5.4.2.2-.4.4-.9.5-1.4,0-.3-.4-.4-.4-.1"/>
    <path class="cls-9" d="M222.8,184.6c-.2.5-.3,1-.5,1.4,0,.3.3.4.4.1.2-.5.3-1,.5-1.4,0-.3-.3-.4-.4-.1"/>
    <path class="cls-9" d="M221.8,187.4c-.2.6-.4,1.1-.6,1.7-.1.3.3.4.4.1.2-.5.4-1.1.6-1.7,0-.3-.3-.4-.4-.1"/>
    <path class="cls-9" d="M221.1,190.8c0,.5-.1.9-.3,1.3-.1.3.3.5.4.2.2-.5.4-1,.4-1.5,0-.3-.4-.3-.4,0"/>
    <path class="cls-9" d="M220.4,193.6c0,.7-.2,1.3-.4,2,0,.3.3.4.4.1.2-.7.3-1.4.4-2.1,0-.3-.4-.3-.4,0"/>
    <path class="cls-9" d="M219.7,196.8c0,.5-.2,1.1-.3,1.6,0,.3.3.4.4.1.2-.6.3-1.1.4-1.7,0-.3-.4-.3-.4,0"/>
    <path class="cls-9" d="M218.9,199.7c-.1.5-.2.9-.3,1.4,0,.3.4.4.4.1.1-.5.2-.9.3-1.4,0-.3-.4-.4-.4-.1"/>
    <path class="cls-9" d="M218.2,202.2c-.1.5-.2.9-.3,1.4,0,.3.4.4.4.1.1-.5.2-.9.3-1.4,0-.3-.4-.4-.4-.1"/>
    <path class="cls-9" d="M217.3,205c-.1.3-.2.6-.3.9,0,.3.4.4.4.1,0-.3.1-.5.3-.8.1-.3-.3-.5-.4-.2"/>
    <path class="cls-9" d="M218.9,204c-.2.5-.3.9-.5,1.4,0,.3.3.4.4.1.2-.5.3-.9.5-1.4,0-.3-.3-.4-.4-.1"/>
    <path class="cls-9" d="M220,201.4c-.1.5-.3,1-.5,1.4-.1.3.3.5.4.2.2-.5.4-1,.5-1.5,0-.3-.4-.4-.4-.1"/>
    <path class="cls-9" d="M220.9,198.8c0-.3-.5-.3-.4,0,0,.5,0,.9-.2,1.4-.1.3.3.5.4.2.2-.5.3-1,.3-1.6"/>
    <path class="cls-9" d="M221.2,196.5c0,.5-.2,1-.4,1.4,0,.3.3.4.4.1.2-.5.3-1,.4-1.5,0-.3-.4-.3-.4,0"/>
    <path class="cls-9" d="M222,194.2c-.1.5-.3,1-.4,1.5,0,.3.4.4.4.1.1-.5.3-1,.4-1.5,0-.3-.4-.4-.4-.1"/>
    <path class="cls-9" d="M222.7,191.3c0,.5-.2,1-.4,1.5,0,.3.3.4.4.1.2-.5.3-1.1.4-1.7,0-.3-.4-.3-.4,0"/>
    <path class="cls-9" d="M223.1,189c0,.4-.2.8-.3,1.2,0,.3.4.4.4.1,0-.4.2-.8.3-1.2,0-.3-.4-.4-.4-.1"/>
    <path class="cls-9" d="M223.8,186.3c0,.5-.2,1-.3,1.5,0,.3.3.4.4.1.1-.5.3-1,.3-1.5,0-.3-.4-.4-.4-.1"/>
    <path class="cls-9" d="M224.6,183.9c0,.5-.1,1-.3,1.5,0,.3.3.4.4.1.2-.5.3-1.1.3-1.7,0-.3-.4-.3-.4,0"/>
    <path class="cls-9" d="M225.5,181.2c-.1.5-.3.9-.5,1.4-.1.3.3.5.4.2.2-.5.4-1,.5-1.5,0-.3-.4-.4-.4-.1"/>
    <path class="cls-9" d="M226.6,178.7l-.5,1.3c-.1.3.3.4.4.1.2-.4.3-.8.5-1.3.1-.3-.3-.4-.4-.1"/>
    <path class="cls-9" d="M227.2,176.6c0,.3-.2.6-.3.9,0,.3.3.4.4.1,0-.3.2-.6.3-.9,0-.3-.3-.4-.4-.1"/>
    <path class="cls-9" d="M220.7,204c-.3.2-.6.5-.9.7-.2.2,0,.6.2.4.3-.2.6-.5.9-.7.2-.2,0-.5-.2-.4"/>
    <path class="cls-9" d="M222.3,202.7c-.2.2-.5.5-.7.7-.2.2.1.5.3.3.2-.2.5-.5.7-.7.2-.2-.1-.5-.3-.3"/>
    <path class="cls-9" d="M224.3,201c-.3.3-.6.6-1,.8-.2.2,0,.5.2.4.4-.3.7-.6,1.1-.9.2-.2-.1-.5-.3-.3"/>
    <path class="cls-9" d="M226.2,198.5c-.4.4-.7.8-1.1,1.2-.2.2.1.5.3.3.4-.4.7-.8,1.1-1.2.2-.2-.1-.5-.3-.3"/>
    <path class="cls-9" d="M227.6,196.4c-.2.3-.5.6-.7.9-.2.2.2.4.4.2.2-.3.5-.6.7-.9.2-.2-.2-.4-.4-.2"/>
    <path class="cls-9" d="M229.2,193.6c-.3.5-.5,1-.9,1.4-.2.2.2.4.4.2.3-.4.6-.9.9-1.4.1-.3-.3-.5-.4-.2"/>
    <path class="cls-9" d="M230.8,190.8c-.3.5-.5,1.1-.8,1.6-.1.3.3.4.4.1.2-.5.4-1,.7-1.5.1-.2-.2-.5-.4-.2"/>
    <path class="cls-9" d="M231.7,187.7c-.1.5-.3,1-.4,1.5,0,.3.3.4.4.1.1-.5.3-1,.4-1.5,0-.3-.3-.4-.4-.1"/>
    <path class="cls-9" d="M232.3,185.2c0,.4,0,.9-.3,1.3-.1.3.3.5.4.2.2-.5.3-1,.3-1.5,0-.3-.4-.3-.4,0"/>
    <path class="cls-9" d="M232.7,182.4c-.1.5-.2,1-.3,1.6,0,.3.4.4.4.1.1-.5.2-1,.3-1.6,0-.3-.4-.4-.4-.1"/>
    <path class="cls-9" d="M232.9,180v1.2c0,.3.4.3.4,0v-1.2c0-.3-.4-.3-.4,0"/>
    <path class="cls-9" d="M232.9,178c0,.3,0,.6,0,.9,0,.3.4.4.4.1,0-.3,0-.7,0-1,0-.3-.4-.3-.4,0"/>
    <path class="cls-9" d="M222,201.5c-.5.3-.9.7-1.3,1.1-.2.2.1.5.3.3.4-.4.8-.7,1.2-1.1.2-.2,0-.6-.2-.4"/>
    <path class="cls-9" d="M224,199.5c-.3.4-.7.7-1.1,1-.2.2,0,.6.2.4.4-.3.8-.7,1.2-1.1.2-.2-.1-.5-.3-.3"/>
    <path class="cls-9" d="M225.7,197.4c-.2.4-.5.7-.8,1.1-.2.2.1.5.3.3.3-.3.6-.7.8-1.1.1-.3-.2-.5-.4-.2"/>
    <path class="cls-9" d="M227.1,194.7c-.3.4-.6.9-.9,1.3-.2.2.1.5.3.3.4-.4.7-.9,1-1.4.2-.2-.2-.5-.4-.2"/>
    <path class="cls-9" d="M228.4,192.5c-.2.3-.4.7-.5,1-.1.2.2.5.4.2l.5-1c.1-.2-.2-.5-.4-.2"/>
    <path class="cls-9" d="M229.7,190c-.2.4-.4.8-.6,1.1-.2.2.2.5.4.2.3-.4.5-.8.7-1.2.1-.3-.3-.4-.4-.1"/>
    <path class="cls-9" d="M230.7,187.1c0,.4-.2.9-.4,1.3,0,.3.3.4.4.1.2-.4.3-.8.4-1.3,0-.3-.4-.4-.4-.1"/>
    <path class="cls-9" d="M231.3,184c0,.5-.2,1.1-.4,1.6-.1.3.3.4.4.1.2-.6.3-1.1.4-1.7,0-.3-.4-.3-.4,0"/>
    <path class="cls-9" d="M231.6,181.3c0,.5,0,1,0,1.4,0,.3.4.3.4,0,0-.5,0-1,0-1.4,0-.3-.4-.3-.4,0"/>
    <path class="cls-9" d="M231.6,178.9c0,.4,0,.7-.1,1.1,0,.3.4.3.4,0,0-.4,0-.7.1-1.1,0-.3-.4-.3-.4,0"/>
    <path class="cls-9" d="M231.5,177.4v.6c0,.3.4.3.4,0v-.6c0-.3-.4-.3-.4,0"/>
    <path class="cls-9" d="M221.7,199.2c-.1.5-.3.9-.6,1.4-.1.2.2.5.4.2.3-.5.5-1,.6-1.5,0-.3-.3-.4-.4-.1"/>
    <path class="cls-9" d="M222.6,196.7c-.1.5-.3,1-.4,1.5-.1.3.3.4.4.1.2-.5.3-1,.4-1.5,0-.3-.4-.4-.4-.1"/>
    <path class="cls-9" d="M223.5,194.5c-.1.4-.3.7-.4,1.1,0,.3.3.4.4.1.1-.4.3-.7.4-1.1,0-.3-.3-.4-.4-.1"/>
    <path class="cls-9" d="M224,191.8c-.1.4-.2.7-.2,1.1,0,.3.4.3.4,0,0-.3,0-.7.2-1,.1-.3-.3-.4-.4-.1"/>
    <path class="cls-9" d="M224.7,189c-.1.4-.2.8-.3,1.2,0,.3.4.4.4.1,0-.4.1-.8.3-1.2,0-.3-.3-.4-.4-.1"/>
    <path class="cls-9" d="M225.4,186.4c-.2.4-.3.9-.4,1.4,0,.3.4.3.4,0,0-.4.1-.8.3-1.2.1-.3-.3-.5-.4-.2"/>
    <path class="cls-9" d="M226.1,184.2c0,.3,0,.7-.1,1,0,.3.4.3.4,0,0-.3,0-.7.1-1,0-.3-.4-.3-.4,0"/>
    <path class="cls-9" d="M226.6,181.9v1.3c-.2.3.3.3.3,0v-1.3c.2-.3-.3-.3-.3,0"/>
    <path class="cls-9" d="M227.3,180.1c-.1.3-.2.6-.3.8,0,.3.3.4.4.1,0-.3.2-.6.3-.8,0-.3-.3-.4-.4-.1"/>
    <path class="cls-9" d="M228,178.1c0,.4-.1.9-.3,1.3,0,.3.3.4.4.1.1-.5.2-.9.3-1.4,0-.3-.4-.3-.4,0"/>
    <path class="cls-9" d="M228.6,176.6c0,.3-.1.5-.2.8,0,.3.4.4.4.1,0-.3.1-.5.2-.8,0-.3-.4-.4-.4-.1"/>
    <path class="cls-9" d="M230.8,177.2c0-.3-.5-.2-.4.1.1.6.1,1.1,0,1.7,0,.3.4.3.4,0,0-.6,0-1.2,0-1.8"/>
    <path class="cls-9" d="M230.8,180.3c0-.3-.5-.3-.4,0,0,.4,0,.8,0,1.3,0,.3.4.4.4.1,0-.5.1-.9.1-1.4"/>
    <path class="cls-9" d="M230.2,182.8c0,.5-.2.9-.3,1.4,0,.3.4.4.4.1.1-.5.2-1,.3-1.5,0-.3-.4-.3-.4,0"/>
    <path class="cls-9" d="M229.6,185.6c0,.4-.2.9-.3,1.3-.1.3.3.4.4.1.2-.4.3-.9.3-1.4,0-.3-.4-.3-.4,0"/>
    <path class="cls-9" d="M229,188.3c-.1.5-.3,1-.6,1.4-.1.2.2.5.4.2.3-.5.5-1,.6-1.5,0-.3-.4-.4-.4-.1"/>
    <path class="cls-9" d="M227.9,190.9c-.2.6-.4,1.1-.7,1.6-.1.2.2.5.4.2.3-.5.6-1.1.8-1.7,0-.3-.3-.4-.4-.1"/>
    <path class="cls-9" d="M226.4,193.9c-.1.4-.3.7-.5,1-.2.2.2.5.4.2.2-.3.4-.7.5-1.1,0-.3-.3-.4-.4-.1"/>
    <path class="cls-9" d="M224.9,196.5l-.6.9c-.2.2.2.5.4.2l.6-.9c.2-.2-.2-.5-.4-.2"/>
    <path class="cls-9" d="M223.5,198.5c-.1,0-.2,0-.3,0-.1.2-.3.4-.4.6,0,0,0,.2,0,.3.1,0,.2,0,.3,0,.1-.2.3-.4.4-.6,0,0,0-.2,0-.3"/>
    <path class="cls-9" d="M224.5,194.9c-.1.4-.3.8-.5,1.2-.1.3.3.5.4.2.2-.4.4-.9.5-1.3,0-.3-.3-.4-.4-.1"/>
    <path class="cls-9" d="M225,192.5c0,.4-.2.7-.3,1,0,.3.3.4.4.1.1-.3.2-.7.3-1,0-.3-.4-.4-.4-.1"/>
    <path class="cls-9" d="M225.7,189.8c0,.4-.2.8-.3,1.2,0,.3.3.4.4.1.1-.4.2-.8.3-1.2,0-.3-.4-.4-.4-.1"/>
    <path class="cls-9" d="M226.6,186.7l-.4,1.7c0,.3.4.4.4.1l.4-1.7c0-.3-.4-.4-.4-.1"/>
    <path class="cls-9" d="M227.3,184.6c0,.4-.2.8-.3,1.1,0,.3.3.4.4.1.1-.4.2-.7.3-1.1,0-.3-.4-.4-.4-.1"/>
    <path class="cls-9" d="M227.9,182.1c0,.4,0,.8-.2,1.2,0,.3.3.4.4.1.2-.4.2-.9.2-1.3,0-.3-.4-.3-.4,0"/>
    <path class="cls-9" d="M228.4,180.1c0,.4-.2.7-.2,1.1,0,.3.4.4.4.1l.2-1.1c0-.3-.4-.4-.4-.1"/>
    <path class="cls-9" d="M229.2,177.8c-.1.5-.3,1-.5,1.4-.1.3.3.5.4.2.2-.5.4-1,.5-1.5,0-.3-.4-.4-.4-.1"/>
    <path class="cls-9" d="M229.3,180.1c0,.3-.1.7-.2,1,0,.3.4.4.4.1l.2-1c0-.3-.4-.4-.4-.1"/>
    <path class="cls-9" d="M229.2,182.5c-.1.4-.2.9-.4,1.3,0,.3.3.4.4.1.1-.4.2-.9.4-1.3,0-.3-.3-.4-.4-.1"/>
    <path class="cls-9" d="M228.4,185.3c-.1.4-.3.9-.4,1.3,0,.3.3.4.4.1.1-.4.3-.9.4-1.3,0-.3-.3-.4-.4-.1"/>
    <path class="cls-9" d="M206.4,209.5c0-.3-.5-.3-.4,0,0,.5,0,.9,0,1.4,0,.3.5.3.4,0,0-.5,0-.9,0-1.4"/>
    <path class="cls-9" d="M206.7,212.5c0-.3-.5-.3-.4,0,0,.4,0,.7,0,1.1,0,.3.5.3.4,0,0-.4,0-.7,0-1.1"/>
    <path class="cls-9" d="M211.5,186.1c-.3-.5-.4-1-.5-1.5,0-.3-.5-.2-.4.1,0,.6.3,1.1.5,1.6.1.2.5,0,.4-.2"/>
    <path class="cls-9" d="M212.3,189.4c-.1-.5-.3-.9-.4-1.4,0-.3-.5-.2-.4.1.1.5.3.9.4,1.4,0,.3.5.2.4-.1"/>
    <path class="cls-9" d="M213.2,192.9c-.2-.6-.3-1.2-.5-1.8,0-.3-.5-.2-.4.1l.5,1.8c0,.3.5.2.4-.1"/>
    <path class="cls-9" d="M213.6,194.3c0-.3-.5-.2-.4.1.2.6.3,1.3.5,1.9,0,.3.5.2.4-.1-.1-.6-.3-1.3-.5-1.9"/>
    <path class="cls-9" d="M214.9,199.7c-.2-.5-.4-1-.4-1.6,0-.3-.5-.3-.4,0,0,.6.2,1.2.5,1.8.1.3.5,0,.4-.2"/>
    <path class="cls-9" d="M215.1,201.4c0-.3-.5-.2-.4.1.2.6.2,1.1.2,1.7,0,.3.4.3.4,0,0-.6,0-1.2-.3-1.8"/>
    <path class="cls-9" d="M215.6,205.2c0-.3-.5-.3-.4,0,0,.6.1,1.2,0,1.8,0,.3.4.3.4,0,0-.6,0-1.2,0-1.8"/>
    <path class="cls-9" d="M215.3,208.5c0,.4,0,.8-.1,1.3,0,.3.4.3.4,0,0-.4,0-.8.1-1.3,0-.3-.4-.3-.4,0"/>
    <path class="cls-9" d="M215,211.1c-.2.4-.3.8-.5,1.2-.1.3.3.4.4.1l.5-1.2c0-.3-.3-.4-.4-.1"/>
    <path class="cls-9" d="M210.2,187.3c-.1-.6-.3-1.3-.5-1.9,0-.3-.5-.2-.4.1.2.6.4,1.3.5,1.9,0,.3.5.2.4-.1"/>
    <path class="cls-9" d="M210.6,188.8c0-.3-.5-.2-.4.1.1.5.2.9.3,1.4,0,.3.5.2.4-.1,0-.5-.2-.9-.3-1.4"/>
    <path class="cls-9" d="M211.9,193.1c-.1-.5-.3-1.1-.4-1.6,0-.3-.5-.2-.4.1l.4,1.6c0,.3.5.2.4-.1"/>
    <path class="cls-9" d="M212.3,194.7c0-.3-.5-.2-.4.1.1.5.3,1,.3,1.5,0,.3.5.2.4-.1,0-.5-.2-1-.3-1.5"/>
    <path class="cls-9" d="M213.5,199.8l-.5-1.7c0-.3-.5-.2-.4.1.2.6.3,1.1.5,1.7,0,.3.5.2.4-.1"/>
    <path class="cls-9" d="M213.6,201.4c0-.3-.5-.2-.4.1.1.4.2.9.3,1.3,0,.3.5.3.4,0,0-.5-.2-1-.3-1.4"/>
    <path class="cls-9" d="M214.2,204.5c0-.3-.5-.3-.4,0,0,.6,0,1.1,0,1.7,0,.3.5.3.4,0,0-.6,0-1.1,0-1.7"/>
    <path class="cls-9" d="M213.7,207.8v1.4c0,.3.4.3.4,0v-1.4c0-.3-.4-.3-.4,0"/>
    <path class="cls-9" d="M214,210.7c0-.3-.5-.3-.4,0,0,.5,0,1,0,1.4,0,.3.4.4.4.1.1-.5.1-1,.1-1.6"/>
    <path class="cls-9" d="M208.8,187.8c-.1-.5-.3-1.1-.4-1.6,0-.3-.5-.2-.4.1.2.5.3,1.1.4,1.6,0,.3.5.2.4-.1"/>
    <path class="cls-9" d="M209.7,190.5c-.1-.4-.3-.8-.4-1.3,0-.3-.5-.2-.4.1.1.4.3.8.4,1.3,0,.3.5.2.4-.1"/>
    <path class="cls-9" d="M210.7,194.3c-.2-.6-.4-1.3-.5-1.9,0-.3-.5-.2-.4.1.2.6.4,1.3.5,1.9,0,.3.5.2.4-.1"/>
    <path class="cls-9" d="M211,195.8c0-.3-.5-.2-.4.1.2.6.3,1.2.4,1.8,0,.3.5.2.4-.1,0-.6-.2-1.2-.4-1.8"/>
    <path class="cls-9" d="M211.8,199.3c0-.3-.5-.2-.4.1.1.6.2,1.3.3,1.9,0,.3.5.3.4,0,0-.7-.2-1.4-.3-2"/>
    <path class="cls-9" d="M212.4,203.4c0-.3-.5-.3-.4,0,0,.5,0,1,.1,1.5,0,.3.5.3.4,0,0-.5,0-1-.1-1.5"/>
    <path class="cls-9" d="M212.6,206.6c0-.3-.5-.3-.4,0,0,.7,0,1.4,0,2.2,0,.3.4.3.4,0,0-.7,0-1.4,0-2.2"/>
    <path class="cls-9" d="M212.6,209.9c0-.3-.4-.3-.4,0,0,.6,0,1.1,0,1.7,0,.3.4.3.4,0,0-.6,0-1.1,0-1.7"/>
    <path class="cls-9" d="M212.6,212.9c0-.3-.5-.3-.4,0,0,.3,0,.5,0,.8,0,.3.4.4.4.1,0-.3,0-.6,0-.9"/>
    <path class="cls-9" d="M207.5,188.3c-.1-.5-.2-.9-.4-1.4,0-.3-.5-.2-.4.1.1.5.2.9.4,1.4,0,.3.5.2.4-.1"/>
    <path class="cls-9" d="M207.8,189.7c0-.3-.5-.2-.4.1.1.6.2,1.2.3,1.8,0,.3.5.2.4-.1-.1-.6-.2-1.2-.3-1.8"/>
    <path class="cls-9" d="M209,194.8c-.2-.6-.3-1.3-.5-1.9,0-.3-.5-.2-.4.1l.5,1.9c0,.3.5.2.4-.1"/>
    <path class="cls-9" d="M209.5,196.8c0-.3-.5-.2-.4.1.1.5.2,1,.2,1.5,0,.3.5.3.4,0,0-.5-.1-1.1-.2-1.6"/>
    <path class="cls-9" d="M210.2,199.8c0-.3-.5-.2-.4.1.1.6.2,1.2.3,1.8,0,.3.5.3.4,0,0-.6-.2-1.3-.3-1.9"/>
    <path class="cls-9" d="M210.8,204c0-.3-.5-.3-.4,0,0,.6,0,1.1,0,1.7,0,.3.4.3.4,0,0-.6,0-1.1,0-1.7"/>
    <path class="cls-9" d="M210.8,207.5v1.5c0,.3.4.3.4,0v-1.5c0-.3-.4-.3-.4,0"/>
    <path class="cls-9" d="M210.8,210.5c0,.5,0,1,0,1.5,0,.3.4.3.4,0,0-.5,0-1,0-1.5,0-.3-.4-.3-.4,0"/>
    <path class="cls-9" d="M210.8,213.1v.6c0,.3.4.3.4,0v-.6c0-.3-.4-.3-.4,0"/>
    <path class="cls-9" d="M205.8,187.5c0-.3-.5-.2-.4.1,0,.5.1.9.2,1.4,0,.3.5.2.4-.1,0-.5-.1-.9-.2-1.4"/>
    <path class="cls-9" d="M206.7,191.8c-.1-.4-.2-.8-.2-1.3,0-.3-.5-.3-.4,0,0,.5.1.9.3,1.4,0,.3.5.2.4-.1"/>
    <path class="cls-9" d="M207.2,194.8c-.1-.5-.2-.9-.2-1.4,0-.3-.5-.3-.4,0,0,.5.1,1,.2,1.5,0,.3.5.2.4-.1"/>
    <path class="cls-9" d="M208,197.9c-.1-.6-.3-1.1-.4-1.7,0-.3-.5-.2-.4.1.1.6.3,1.1.4,1.7,0,.3.5.2.4-.1"/>
    <path class="cls-9" d="M208.7,201.6c-.1-.6-.2-1.2-.3-1.8,0-.3-.5-.3-.4,0,0,.6.2,1.3.3,1.9,0,.3.5.2.4-.1"/>
    <path class="cls-9" d="M209,203.2c0-.3-.5-.2-.4.1.2.8.4,1.5.5,2.3,0,.3.5.3.4,0-.1-.8-.3-1.6-.5-2.4"/>
    <path class="cls-9" d="M209.7,207.1c0-.3-.5-.3-.4,0v1.6c.1.3.6.3.6,0v-1.6Z"/>
    <path class="cls-9" d="M209.4,210.3v1.5c0,.3.4.3.4,0v-1.5c0-.3-.4-.3-.4,0"/>
    <path class="cls-9" d="M209.4,213c0,.3,0,.6,0,.9,0,.3.4.3.4,0,0-.3,0-.6,0-.9,0-.3-.4-.3-.4,0"/>
    <path class="cls-9" d="M204.7,188.1c0-.3-.4-.3-.4,0,0,.6,0,1.3.2,1.9,0,.3.5.2.4-.1-.1-.6-.2-1.2-.2-1.8"/>
    <path class="cls-9" d="M205.3,193.2c-.1-.5-.2-1-.2-1.5,0-.3-.5-.3-.4,0,0,.6.1,1.1.2,1.7,0,.3.5.2.4-.1"/>
    <path class="cls-9" d="M206,196.8c-.1-.5-.2-1.1-.4-1.6,0-.3-.5-.2-.4.1.1.5.2,1.1.4,1.6,0,.3.5.2.4-.1"/>
    <path class="cls-9" d="M206.7,200.3c-.2-.5-.3-1.1-.4-1.7,0-.3-.5-.2-.4.1,0,.6.2,1.1.4,1.7,0,.3.5.2.4-.1"/>
    <path class="cls-9" d="M207.4,203.5c-.1-.6-.3-1.1-.3-1.7,0-.3-.5-.3-.4,0,0,.6.2,1.2.3,1.8,0,.3.5.2.4-.1"/>
    <path class="cls-9" d="M207.7,205c0-.3-.5-.2-.4.1.1.7.2,1.4.3,2.2,0,.3.5.2.4-.1,0-.7-.2-1.4-.3-2.2"/>
    <path class="cls-9" d="M208.1,209.1c0-.3-.5-.2-.4.1,0,.6.1,1.2.1,1.8,0,.3.4.3.4,0,0-.6,0-1.3-.1-1.9"/>
    <path class="cls-9" d="M208.2,212.9c0-.3-.4-.3-.4,0,0,.3,0,.6,0,.8,0,.3.5.2.4-.1,0-.2,0-.5,0-.7"/>
    <path class="cls-9" d="M203.7,192c-.2-.6-.3-1.2-.3-1.8,0-.3-.4-.3-.4,0,0,.6.1,1.3.3,1.9,0,.3.5.2.4-.1"/>
    <path class="cls-9" d="M204.3,195.5c-.1-.5-.2-1.1-.3-1.6,0-.3-.5-.2-.4.1,0,.5.2,1.1.3,1.6,0,.3.5.2.4-.1"/>
    <path class="cls-9" d="M204.7,198.2c-.1-.4-.2-.8-.3-1.2,0-.3-.5-.3-.4,0,0,.5.1.9.3,1.3,0,.3.5.2.4-.1"/>
    <path class="cls-9" d="M205.3,201.5c-.1-.4-.2-.8-.1-1.2,0-.3-.4-.3-.4,0,0,.5,0,.9.2,1.3,0,.3.5.2.4-.1"/>
    <path class="cls-9" d="M205.7,203.2c0-.3-.5-.2-.4.1l.2,1.2c0,.3.5.2.4-.1l-.2-1.2Z"/>
    <path class="cls-9" d="M206.2,206.6c0-.3-.4-.3-.4,0,0,.4,0,.9,0,1.3,0,.3.5.2.4-.1,0-.4,0-.8,0-1.2"/>
    <path class="cls-7" d="M183.6,177.6c-.3.2-.6.4-.9.6-.2.1-.5.2-.7.4,0,0,0,0,0,.1,0,.3.6.6.8.7.5.2,1,.4,1.5.6.4.2.7.4,1.1.5.4-.5.6-1.2.6-1.9,0-.8-.2-1.6-.6-2.2,0,0,0,0,0,0-.5.4-1.1.8-1.6,1.1"/>
    <path class="cls-7" d="M198.9,215.2c.4-.5.5-1.1.7-1.7.2-1.1.4-2.2.5-3.3,0-.5,0-.9.1-1.4,0-.2,0-.5,0-.7,0-.2,0-.5,0-.7,0,0-.1.1-.2.2,0,0-.2-.4-.3-.5-.1-.2-.3-.5-.5-.7,0,0,0,0-.1,0-.3.3-.7.6-1.1.9-.2-.3-.5-.7-.8-1.1-.1-.1-.3,0-.4.1-.1.1-.3.2-.4.3-.1.1-.2.2-.2.4,0,.2,0,.3,0,.5,0,.3,0,.6-.1.8,0,.6-.1,1.1-.2,1.7,0,1.1,0,2.3,0,3.4,0,0,0,.1,0,.2,0,.4.1.9.3,1.3.2.4.5.8,1,.9.6.1,1.2-.2,1.6-.7"/>
    <path class="cls-7" d="M204,215.2c.3-.5.4-1.1.4-1.7.1-1.5,0-3,0-4.5,0-.3,0-.6,0-.9,0-.1,0-.3,0-.4,0,0,0-.2,0-.3,0,0,0,.1-.1.1,0,0,0,0-.1,0,0,0-.1-.2-.2-.3-.1-.1-.5-.7-.7-.6,0,0,0,0,0,0-.2.2-.3.3-.5.5-.1.2-.3.4-.5.5-.1-.1-.2-.3-.4-.4-.1-.1-.2-.2-.3-.3,0,0-.2-.2-.3-.2,0,0-.2.1-.2.2-.1.1-.2.2-.3.3-.2.2-.2.3-.2.5,0,.3,0,.5,0,.8,0,.4,0,.7,0,1.1,0,.7,0,1.5.2,2.2,0,.8.2,1.6.5,2.4.1.4.3.9.5,1.2.3.4.6.7,1.1.7.6,0,1.2-.3,1.5-.9"/>
    <path class="cls-7" d="M203.8,180.4c-.1,0-.2,0-.3,0-.8-.1-1.4-.6-1.7-1.4-.3-.7-.1-1.6.4-2.2.1-.1.3-.2.5,0,.1.1.2.3,0,.5-.3.4-.4,1-.2,1.5.2.5.7.9,1.2.9.5,0,1.1-.1,1.4-.5.1-.1.3-.1.5,0,.1.1.1.3,0,.5-.4.5-1.1.8-1.7.8"/>
    <path class="cls-7" d="M196.8,174.5c-.1,0-.3,0-.4,0-.7-.1-1.3-.7-1.5-1.5-.2-.7,0-1.5.7-2,.1-.1.4,0,.5,0,.1.1,0,.4,0,.5-.4.3-.5.8-.4,1.3.1.5.5.9,1,1,.5,0,1-.1,1.3-.5.1-.1.3-.2.5,0,.1.1.2.3,0,.5-.4.5-1,.8-1.6.8"/>
    <path class="cls-7" d="M224.5,175s1.2-2,1.8-2.9c.5-.6,1-1.3,1.5-1.9,1.1-1.2,2.2-2,3.2-2.2,2.5-.6,2.9,4.8,2.9,8.1,0,.1,0,.2,0,.3v.3s.1.8-.1.8-.3,0-.5,0c0,0,0,0,0,0-.1,0-.3-.1-.4-.1,0,0-.1,0-.2,0-.2,0-.4,0-.5,0,0,0,0,0,0,0,0,0-.1,0-.2,0-.1,0-.2,0-.3-.1,0,0,0,0,0,0-.1,0-.3,0-.4-.1-.3-.2-.9-.4-1.1-.4-.2,0-.8,0-1-.3-.2-.2-.4-.4-.6-.3-.2,0-.8,0-.9-.2s-.6-.2-.8-.2-.3,0-.4,0c-.1,0-.2,0-.3,0,0,0-.1,0-.1,0,0,0-.2,0-.2,0,0,0-.2,0-.2,0-.2,0-.7,0-.8,0s-.1-.1-.1-.2"/>
    <path class="cls-7" d="M196.8,164.4s0,0,0,0c.2-.2.4-.5.6-.7,1.5-1.7,3.1-2.8,4.7-3.5,0,0,0,0,.1,0,0,0,0,0,0,0,0,1.8,0,3.7-.3,5.8,0,.1,0,.4,0,.4s-.3-.1-.4-.2c0,0-.5-.1-.7-.2-.2,0-.6-.2-.8-.3s-.3-.2-.5-.3-.7-.1-.8-.3-.5-.5-.7-.5c-.1,0-.6-.3-.8-.3s-.2,0-.3-.1c0,0,0,0,0,0,0,0,0,0,0,0h0"/>
    <path class="cls-7" d="M212.7,175.7h0c2.3-.3,4.5-.3,6.5,0,0,0,0,0,0,0,0,0,0,0,0,0-.5,1-1.1,2-1.9,3,0,0-.9,1.2-1.2,1.4-.3.1-.5,0-.7-.3-.2-.2-.3-.6-.4-.8s-.4-.6-.5-.7c-.1,0-.2,0-.3,0,0,0,0,0,0,0,0,0,0,0-.2-.2-.2-.2-.3-.6-.5-.6-.1,0-.4-.2-.6-.4-.2-.2-.6-.4-.7-.6-.2-.2-.3-.6.3-.6"/>
    <path class="cls-8" d="M181.4,213.1s-3.8-6.1-3.1-10.2c.7-4.1,6-2,6.6,0,.6,2-1.8-8.8,2.4-9.3,4.2-.6,5.7,9.8,5.7,9.8,0,0,1-6.6,4-4.8,3,1.8,0,14.6,0,14.6h-15.5Z"/>
    <path class="cls-8" d="M231.1,216.7s3.8-6.1,3.1-10.2c-.7-4.1-6-2-6.6,0-.6,2,1.8-8.8-2.4-9.3-4.2-.6-5.7,9.8-5.7,9.8,0,0-1-6.6-4-4.8-3,1.8,0,14.6,0,14.6h15.6Z"/>
    <path class="cls-5" d="M143.7,160.3c0-4.7-3.8-8.5-8.5-8.5s-.9,0-1.3.1c.1-.6.2-1.2.2-1.9,0-4.7-3.8-8.5-8.5-8.5s-4.8,1.2-6.4,2.9c-1.6-1.8-3.8-2.9-6.4-2.9-4.3,0-7.7,3.1-8.4,7.2-.4,0-.8-.1-1.2-.1-4.7,0-8.5,3.8-8.5,8.5s3.4,8.1,7.8,8.4c0,0,0,0,0,0,0,4.7,3.8,8.5,8.5,8.5s4.8-1.1,6.4-2.9c1.6,1.8,3.8,2.9,6.4,2.9,3.8,0,7-2.5,8.1-6,1,.4,2.1.7,3.3.7,4.7,0,8.5-3.8,8.5-8.5"/>
    <path class="cls-5" d="M238.6,146c0-3.2-2.6-5.7-5.7-5.7s-.6,0-.9,0c0-.4.1-.8.1-1.3,0-3.2-2.6-5.7-5.7-5.7s-3.2.8-4.3,2c-1-1.2-2.6-2-4.3-2-2.9,0-5.2,2.1-5.6,4.8-.3,0-.5,0-.8,0-3.2,0-5.7,2.6-5.7,5.7s2.3,5.4,5.2,5.7c0,0,0,0,0,0,0,3.2,2.6,5.7,5.7,5.7s3.2-.8,4.3-2c1,1.2,2.6,2,4.3,2,2.6,0,4.7-1.7,5.4-4,.7.3,1.4.5,2.2.5,3.2,0,5.7-2.6,5.7-5.7"/>
    <path class="cls-8" d="M152.2,215.5s4.9-8,4-13.3c-.9-5.3-7.8-2.7-8.6,0-.8,2.7,2.3-11.4-3.1-12.1-5.4-.8-7.4,12.7-7.4,12.7,0,0-1.3-8.5-5.2-6.3-3.9,2.3,0,19,0,19h20.2Z"/>
  </g>
</svg>