<?xml version="1.0" encoding="UTF-8"?>
<svg id="Warstwa_1" data-name="Warstwa 1" xmlns="http://www.w3.org/2000/svg" version="1.1" viewBox="0 0 326 322">
  <defs>
    <style>
      .cls-1 {
        fill: #f191bc;
        stroke-width: 0px;
      }
    </style>
  </defs>
  <path class="cls-1" d="M72.5,81.6c-4.5,0-9.4.5-12.6,7-2.6,5.3-3.4,13.4-4,20.9-2.6,31.6-5.3,63.2-7.9,94.7-1.1,12.6-2,26.5,1.3,37.3,4.4,14.5,14.1,16.2,22.3,16.2,57.9.6,115.8,1.1,173.7,1.7,6,0,12.2,0,18-3.4,5.8-3.5,11.4-11,13.9-22.5,2.7-12,1.7-26.1.7-39.2-1.9-24.1-3.7-48.2-5.6-72.3-.7-9.6-1.5-19.4-4-27.7-6.1-20.8-20-14.9-29.8-14.8-13.4.2-26.9.3-40.3.5-27.2.3-54.3.7-81.5,1-14.8.2-29.6.4-44.4.5"/>
</svg>