<?xml version="1.0" encoding="UTF-8"?>
<svg id="Warstwa_1" data-name="Warstwa 1" xmlns="http://www.w3.org/2000/svg" xmlns:xlink="http://www.w3.org/1999/xlink" version="1.1" viewBox="0 0 326 322">
  <defs>
    <style>
      .cls-1 {
        clip-path: url(#clippath);
      }

      .cls-2 {
        fill: none;
      }

      .cls-2, .cls-3 {
        stroke-width: 0px;
      }

      .cls-3 {
        fill: #77b6e0;
      }
    </style>
    <clipPath id="clippath">
      <rect class="cls-2" x="35.8" y="50.7" width="254.5" height="229.7" transform="translate(-58.4 95.2) rotate(-27.8)"/>
    </clipPath>
  </defs>
  <g class="cls-1">
    <path class="cls-3" d="M103.3,88.2c-25.7-1-56.1.2-70.4,21.7-12.3,18.4-6.4,42.9,0,64.2,9.5,31.9,19.9,65.1,43.6,88.6,21.9,21.6,54.1,32,84.5,27.4,52.2-7.9,89.6-55.8,107.5-105.5,7.9-21.7,13.1-45.1,8.9-67.8s-19.4-44.5-41.4-51.1c-27.8-8.3-32.4,12.3-51.8,20.8-22.4,9.7-55.9,2.8-80.8,1.8"/>
  </g>
</svg>